<svg width="291" height="292" viewBox="0 0 291 292" fill="none" xmlns="http://www.w3.org/2000/svg">
<path d="M78.0609 168.364V206.806H262.357C262.357 198.874 262.357 180.69 262.357 171.415M78.0609 168.364L28.6305 121.378V103.683C28.2237 99.4113 25.3352 90.7465 17.0358 90.2583C8.73636 89.7702 4.2205 99.0045 3 103.683V272.097C6.66151 284.098 17.4019 300.899 31.0716 272.097C31.0716 262.822 31.0716 248.3 31.0716 242.198C30.4613 239.35 32.17 234.021 43.8868 235.485C55.6036 236.95 188.313 236.096 253.203 235.485C256.864 234.875 264.187 236.584 264.187 248.3C264.187 260.015 262.967 270.267 262.357 273.928C262.56 278.199 265.53 286.498 275.782 285.522C286.034 284.545 288.191 277.386 287.987 273.928V195.212C287.987 181.056 270.9 173.449 262.357 171.415M78.0609 168.364C79.4848 157.177 87.8249 134.681 109.794 134.193C131.763 133.704 200.721 133.989 232.454 134.193C243.439 136.023 264.798 146.03 262.357 171.415M134.814 42.0527V23.1365H154.953V42.0527H175.091V62.1892H154.953V81.1053H134.814V62.1892H116.507V42.0527H134.814ZM145.799 3C162.072 3 194.619 12.6411 194.619 51.2056C194.619 89.7702 162.072 99.8181 145.799 100.021C129.932 99.8181 98.0771 89.7702 97.5889 51.2056C97.1007 12.6411 129.525 3 145.799 3ZM67.0764 90.2583C73.5857 90.2583 86.7265 94.0415 87.2147 109.174C87.7029 124.307 73.9925 128.904 67.0764 129.311C61.1773 128.904 49.257 124.307 48.7688 109.174C48.2806 94.0415 60.7704 90.2583 67.0764 90.2583Z" stroke="black" stroke-width="6"/>
</svg>
