<svg id="svg" xmlns="http://www.w3.org/2000/svg" xmlns:xlink="http://www.w3.org/1999/xlink" width="400" height="491.0485933503836" viewBox="0, 0, 400,491.0485933503836"><g id="svgg"><path id="path0" d="M193.606 0.268 C 147.332 3.796,100.572 28.022,62.534 68.175 C 57.787 73.186,57.482 73.646,57.375 75.959 C 57.332 76.873,57.235 78.197,57.157 78.900 C 57.033 80.034,57.362 81.255,60.045 89.642 L 63.073 99.105 62.163 99.308 C 61.663 99.420,58.481 100.017,55.092 100.634 C 43.495 102.745,41.095 103.909,40.746 107.595 C 40.668 108.411,40.455 109.321,40.271 109.616 C 39.993 110.062,40.017 111.016,40.411 115.243 C 41.072 122.338,41.314 127.786,40.985 128.190 C 40.657 128.594,38.425 134.223,36.213 140.225 L 34.550 144.738 34.379 181.640 L 34.208 218.542 34.825 219.437 C 35.367 220.224,39.578 222.967,50.072 229.369 C 50.254 229.480,46.682 230.125,42.016 230.823 L 33.632 232.077 32.609 233.194 L 31.586 234.311 31.659 236.657 C 33.593 298.149,37.592 430.939,37.540 431.926 L 37.468 433.289 21.524 422.379 C 12.755 416.379,5.526 411.524,5.459 411.591 C 5.393 411.658,8.954 420.582,13.373 431.423 L 21.409 451.134 19.848 450.266 C 6.306 442.738,0.513 439.716,0.245 440.039 C -0.137 440.498,-1.057 439.279,11.204 454.557 C 17.166 461.987,21.998 468.113,21.941 468.170 C 21.884 468.227,17.603 466.370,12.427 464.044 C 7.251 461.718,2.974 459.856,2.924 459.906 C 2.593 460.237,8.735 469.778,12.508 474.794 C 21.275 486.451,27.505 489.933,37.977 489.031 C 47.480 488.212,51.646 486.939,59.668 482.402 C 66.695 478.429,68.478 477.624,71.968 476.850 C 77.456 475.634,80.218 476.813,87.021 483.274 C 93.727 489.644,97.073 491.054,105.468 491.045 C 111.783 491.039,114.781 490.058,118.414 486.808 C 123.959 481.848,125.181 481.668,132.743 484.697 C 140.430 487.776,142.254 487.228,147.570 480.240 C 150.376 476.552,151.374 475.831,153.668 475.832 C 156.419 475.834,157.374 476.554,163.757 483.433 C 168.225 488.249,171.238 489.464,176.908 488.735 C 182.883 487.968,184.450 487.048,190.793 480.590 C 198.398 472.846,199.228 472.603,207.801 475.608 C 210.051 476.397,212.986 477.588,214.322 478.255 C 221.791 481.982,224.836 481.245,230.554 474.328 C 235.771 468.016,235.754 468.024,243.350 468.275 C 250.606 468.514,251.933 468.912,259.974 473.262 C 276.043 481.954,280.133 482.437,287.980 476.569 C 294.100 471.993,297.025 471.530,306.396 473.658 C 312.973 475.151,314.799 475.804,320.666 478.760 C 328.048 482.478,329.487 482.966,333.120 482.981 C 337.016 482.997,337.772 482.531,341.799 477.635 C 346.920 471.409,349.545 471.799,354.615 479.540 C 358.005 484.716,360.704 486.688,367.391 488.874 C 377.610 492.216,382.095 489.187,384.646 477.221 C 386.145 470.184,386.754 468.984,393.204 460.358 C 396.485 455.970,398.954 451.435,399.609 448.593 C 401.084 442.197,398.411 427.351,392.047 406.586 C 391.420 404.541,391.192 404.092,390.782 404.092 C 390.294 404.092,390.280 404.348,390.246 414.130 C 390.226 419.652,390.140 426.047,390.054 428.342 L 389.898 432.515 387.398 429.365 C 379.976 420.011,379.111 418.002,378.772 409.335 C 378.517 402.811,378.103 400.621,376.710 398.443 L 375.959 397.270 375.959 335.310 L 375.959 273.350 371.456 268.131 L 366.953 262.911 370.927 252.108 L 374.901 241.304 375.128 193.095 L 375.354 144.885 369.620 124.680 C 366.466 113.568,363.721 104.215,363.520 103.895 C 363.318 103.576,360.856 100.394,358.047 96.823 L 352.941 90.332 352.176 78.734 C 351.754 72.355,351.409 67.005,351.408 66.845 C 351.405 66.314,340.578 56.862,333.119 50.880 C 295.832 20.975,259.862 4.888,220.716 0.611 C 216.382 0.138,198.318 -0.091,193.606 0.268 M217.136 9.984 C 222.947 10.392,231.179 11.407,234.828 12.166 L 235.513 12.309 234.973 13.252 C 230.491 21.063,223.784 29.205,219.118 32.496 C 213.806 36.244,212.084 36.396,174.297 36.452 C 158.402 36.475,144.533 36.574,143.478 36.672 C 134.067 37.541,130.087 39.675,125.775 46.164 C 123.244 49.973,119.183 58.460,119.582 59.107 C 119.864 59.562,120.168 59.291,122.271 56.714 C 128.472 49.111,135.292 43.502,139.741 42.345 C 144.720 41.050,159.346 41.375,165.282 42.912 C 165.966 43.089,165.702 43.412,156.369 53.836 C 149.392 61.630,146.151 65.455,144.562 67.775 C 139.863 74.634,135.869 79.681,134.194 80.873 C 132.563 82.035,127.802 81.929,114.717 80.440 C 104.509 79.279,105.184 79.256,102.271 80.861 C 97.626 83.421,90.281 88.488,90.281 89.133 C 90.281 89.642,89.466 89.800,100.209 87.199 L 109.769 84.885 115.307 86.722 C 118.352 87.733,120.939 88.614,121.054 88.680 C 121.170 88.746,119.729 90.371,117.853 92.290 C 106.746 103.650,104.541 107.666,101.543 121.995 C 101.116 124.035,100.707 125.962,100.634 126.279 C 100.305 127.706,101.344 126.784,102.220 124.872 C 110.100 107.661,112.250 104.231,122.956 91.785 L 126.392 87.791 130.268 87.655 C 137.306 87.407,140.871 85.065,147.827 76.120 L 149.989 73.340 150.574 77.897 C 152.562 93.393,154.691 97.356,169.321 112.788 L 173.564 117.263 174.660 122.251 C 177.798 136.530,177.697 136.650,178.168 118.087 C 178.260 114.460,178.405 111.461,178.490 111.423 C 178.575 111.384,180.371 111.433,182.481 111.532 C 194.578 112.098,194.671 112.251,179.605 106.793 L 167.647 102.461 166.298 101.039 C 160.042 94.444,156.801 83.889,156.693 69.749 L 156.650 64.177 159.247 63.071 C 169.589 58.667,174.191 54.534,177.011 47.123 C 177.617 45.530,177.623 45.524,178.643 45.522 C 190.585 45.490,212.335 43.822,218.734 42.447 C 221.970 41.752,227.814 37.100,242.403 23.606 C 244.274 21.876,245.892 20.460,246.000 20.460 C 246.176 20.460,303.708 73.718,306.321 76.300 C 307.342 77.309,307.596 77.911,311.099 87.596 C 314.210 96.202,316.346 101.419,324.551 120.460 L 334.304 143.095 335.180 195.310 L 336.056 247.526 331.711 257.017 C 329.321 262.237,327.366 266.552,327.366 266.606 C 327.366 266.660,329.596 270.465,332.322 275.060 L 337.277 283.416 337.435 323.741 C 337.521 345.920,337.660 381.157,337.742 402.046 L 337.892 440.026 329.368 448.668 L 320.844 457.310 307.417 455.901 C 293.926 454.484,286.102 453.150,285.000 452.077 C 284.838 451.919,283.357 448.683,281.708 444.885 C 280.059 441.087,278.622 437.883,278.514 437.766 C 278.407 437.648,274.997 441.362,270.937 446.019 C 265.149 452.657,263.517 454.387,263.378 454.033 C 263.281 453.784,262.205 445.754,260.988 436.189 C 259.770 426.624,258.698 418.415,258.605 417.947 C 258.444 417.140,257.665 418.309,243.733 440.261 L 229.030 463.427 219.566 463.391 C 214.361 463.371,205.220 463.285,199.252 463.199 L 188.401 463.043 187.066 456.522 C 186.332 452.935,185.010 446.461,184.128 442.136 C 183.008 436.640,182.425 434.271,182.191 434.271 C 181.813 434.271,181.784 434.366,179.277 443.862 C 178.275 447.660,176.841 453.012,176.090 455.754 C 175.340 458.497,174.594 461.242,174.431 461.852 L 174.136 462.963 158.488 462.780 C 149.881 462.679,142.820 462.582,142.797 462.564 C 142.773 462.546,140.265 454.188,137.221 443.990 C 129.852 419.294,130.220 420.460,129.784 420.460 C 129.579 420.460,129.410 420.489,129.408 420.524 C 129.353 421.362,122.811 462.185,122.716 462.280 C 122.580 462.416,75.132 461.914,74.991 461.775 C 74.950 461.736,74.620 457.171,74.257 451.632 C 73.894 446.092,73.563 441.522,73.522 441.476 C 73.481 441.430,71.547 442.853,69.226 444.637 C 66.904 446.422,64.915 447.898,64.805 447.918 C 64.615 447.952,64.322 446.395,62.394 435.094 C 61.931 432.381,61.466 430.252,61.360 430.362 C 61.255 430.472,58.346 437.085,54.897 445.056 C 51.447 453.027,48.383 460.023,48.087 460.603 L 47.550 461.656 45.322 461.583 L 43.095 461.509 43.016 458.951 C 42.973 457.545,41.408 406.905,39.537 346.419 C 37.667 285.934,36.165 236.409,36.201 236.364 C 36.237 236.319,40.795 235.601,46.330 234.767 C 51.865 233.933,56.637 233.195,56.933 233.126 C 57.591 232.973,58.511 229.175,57.969 228.851 C 57.806 228.753,53.435 226.048,48.255 222.840 L 38.838 217.008 38.856 187.212 C 38.865 170.825,38.942 154.712,39.026 151.407 L 39.179 145.396 41.336 139.569 C 42.522 136.364,43.979 132.624,44.572 131.257 L 45.652 128.772 45.609 125.533 C 45.586 123.751,45.374 120.031,45.138 117.266 C 44.902 114.502,44.748 112.200,44.797 112.152 C 44.845 112.104,49.604 111.654,55.371 111.152 C 70.079 109.872,68.320 110.200,69.426 108.534 L 70.362 107.124 65.992 93.323 L 61.622 79.521 65.274 76.015 C 71.858 69.692,75.794 66.124,81.586 61.227 C 125.074 24.454,171.773 6.800,217.136 9.984 M268.670 22.106 C 285.857 29.109,303.512 39.629,318.670 51.898 C 328.342 59.727,341.524 72.504,341.777 74.297 C 341.857 74.859,342.052 79.290,342.210 84.143 C 342.369 88.996,342.622 93.312,342.773 93.734 C 342.932 94.176,345.645 97.118,349.175 100.675 L 355.301 106.849 361.007 125.675 L 366.713 144.502 366.202 191.880 L 365.691 239.258 361.371 251.023 C 356.024 265.585,355.915 263.393,362.295 269.693 L 366.956 274.297 366.325 359.207 L 365.694 444.118 356.668 453.160 L 347.642 462.203 347.479 446.127 C 347.389 437.285,347.255 397.481,347.182 357.673 C 347.108 317.864,346.983 284.239,346.903 282.950 L 346.758 280.605 342.443 273.320 L 338.127 266.035 341.903 257.762 L 345.680 249.488 344.804 195.396 L 343.928 141.304 333.816 117.775 C 325.210 97.747,323.092 92.565,319.589 82.953 L 315.473 71.661 288.107 46.288 C 273.056 32.333,260.109 20.289,259.335 19.525 L 257.928 18.134 261.509 19.391 C 263.478 20.082,266.701 21.304,268.670 22.106 M104.348 147.596 C 102.027 147.709,98.785 147.922,97.143 148.069 C 95.501 148.217,93.141 148.341,91.900 148.345 C 82.386 148.379,77.415 152.133,79.887 157.417 C 81.756 161.413,83.189 161.874,94.577 162.140 C 99.690 162.259,103.909 162.396,103.951 162.444 C 103.993 162.493,104.277 173.605,104.581 187.139 C 105.169 213.296,105.141 212.884,106.479 215.168 C 109.606 220.503,115.023 221.153,117.553 216.496 L 118.387 214.962 119.082 205.371 C 119.465 200.096,119.805 195.744,119.838 195.699 C 119.988 195.496,124.749 197.280,126.782 198.302 C 133.261 201.555,138.893 207.776,145.130 218.566 C 145.636 219.441,149.453 221.614,152.059 222.511 C 156.654 224.092,158.568 221.710,158.568 214.411 L 158.568 211.456 151.958 202.339 C 148.323 197.325,144.928 192.634,144.414 191.915 L 143.480 190.607 144.467 189.485 C 153.183 179.571,153.292 164.434,144.707 155.981 C 137.362 148.749,126.605 146.515,104.348 147.596 M232.992 148.879 C 224.603 149.438,220.582 152.787,220.594 159.207 C 220.606 165.431,220.534 165.380,229.668 165.614 C 232.692 165.691,235.536 165.810,235.989 165.879 L 236.811 166.005 236.657 173.092 C 236.501 180.275,236.759 187.903,237.481 197.442 C 237.689 200.185,238.082 205.623,238.354 209.526 C 238.750 215.196,238.948 216.841,239.338 217.710 C 241.583 222.711,250.046 224.115,252.366 219.872 C 252.774 219.126,252.813 218.002,252.814 207.168 L 252.815 195.282 260.344 193.954 C 270.422 192.176,272.454 191.335,276.046 187.455 C 285.607 177.129,284.572 155.047,274.292 150.019 C 272.768 149.274,272.739 149.270,266.368 149.077 C 257.567 148.810,235.953 148.682,232.992 148.879 M186.981 150.643 C 182.835 153.253,182.768 158.271,186.801 164.194 L 188.107 166.113 188.005 190.966 L 187.903 215.819 189.795 216.413 C 192.993 217.417,201.145 216.975,201.808 215.761 C 201.817 215.743,201.918 205.551,202.031 193.112 L 202.238 170.495 200.859 165.911 C 198.150 156.900,196.006 153.090,192.483 151.026 C 190.787 150.032,188.234 149.855,186.981 150.643 M128.517 163.680 C 131.546 165.146,134.167 168.692,136.188 174.063 L 136.793 175.670 136.108 175.807 C 131.863 176.650,120.213 176.883,117.775 176.173 C 116.237 175.725,116.065 175.040,116.739 172.023 C 118.320 164.935,123.510 161.258,128.517 163.680 M255.651 164.195 C 269.927 165.284,273.664 174.188,262.161 179.704 C 258.802 181.315,250.873 182.880,250.342 182.036 C 249.240 180.283,248.913 172.950,249.712 167.903 C 250.282 164.305,250.301 164.248,250.971 164.118 C 251.943 163.929,252.220 163.934,255.651 164.195 " stroke="none" fill="#000000" fill-rule="evenodd"></path></g></svg>