<svg width="237" height="218" viewBox="0 0 237 218" fill="none" xmlns="http://www.w3.org/2000/svg">
<path d="M3 178.5L0.00155966 178.403L0 178.452V178.5H3ZM3 203H0V203.322L0.0684709 203.637L3 203ZM176 214.5V217.5H176.048L176.095 217.498L176 214.5ZM234 155H237V154.889L236.992 154.778L234 155ZM129.5 95.5L127.579 93.1953L126.573 94.034L126.504 95.3423L129.5 95.5ZM145.5 78L148.417 78.7001L148.5 78.355V78H145.5ZM136 66.5L133.016 66.1859L138.572 68.0435L136 66.5ZM137.5 38L140.499 38.0789L140.499 38.0682L137.5 38ZM121 10L119.612 12.6598L119.801 12.7582L120.002 12.829L121 10ZM94.5 3L94.5833 0.00115674L94.5417 0H94.5V3ZM54 24.5L56.3047 26.4206L56.5818 26.088L56.7536 25.6907L54 24.5ZM54 65L53.5068 67.9592L58.5102 68.7931L56.8308 64.0067L54 65ZM60 94L62.7854 92.8858L62.2914 91.6509L61.0446 91.1877L60 94ZM49.6341 44L46.637 44.1319L49.6341 44ZM65.5 59L65.3502 61.9963L65.5 59ZM98 49L99.4118 51.6471L98 49ZM121 27.5L122.611 24.969L120.451 23.5949L118.754 25.5109L121 27.5ZM177.5 143.5L174.817 144.842C175.282 145.772 176.195 146.395 177.231 146.488C178.266 146.581 179.276 146.132 179.9 145.3L177.5 143.5ZM148 148.5H145V148.687L145.023 148.872L148 148.5ZM177.5 188L175.334 190.076L177.454 192.288L179.621 190.121L177.5 188ZM209 148.5L211.983 148.822L209 148.5ZM63.5068 134.541C53.2895 136.244 37.9065 140.374 24.8904 147.302C12.0672 154.127 0.457356 164.274 0.00155966 178.403L5.99844 178.597C6.34264 167.926 15.2328 159.239 27.7096 152.598C39.9935 146.06 54.7105 142.09 64.4932 140.459L63.5068 134.541ZM0 178.5C0 178.516 0 178.533 0 178.549C0 178.566 0 178.582 0 178.599C0 178.615 0 178.631 0 178.648C0 178.664 0 178.681 0 178.697C0 178.714 0 178.73 0 178.747C0 178.763 0 178.78 0 178.797C0 178.813 0 178.83 0 178.846C0 178.863 0 178.879 0 178.896C0 178.913 0 178.929 0 178.946C0 178.962 0 178.979 0 178.996C0 179.012 0 179.029 0 179.046C0 179.062 0 179.079 0 179.095C0 179.112 0 179.129 0 179.146C0 179.162 0 179.179 0 179.196C0 179.212 0 179.229 0 179.246C0 179.263 0 179.279 0 179.296C0 179.313 0 179.33 0 179.346C0 179.363 0 179.38 0 179.397C0 179.414 0 179.43 0 179.447C0 179.464 0 179.481 0 179.498C0 179.515 0 179.531 0 179.548C0 179.565 0 179.582 0 179.599C0 179.616 0 179.633 0 179.65C0 179.666 0 179.683 0 179.7C0 179.717 0 179.734 0 179.751C0 179.768 0 179.785 0 179.802C0 179.819 0 179.836 0 179.853C0 179.87 0 179.887 0 179.904C0 179.921 0 179.938 0 179.955C0 179.972 0 179.989 0 180.006C0 180.023 0 180.04 0 180.057C0 180.074 0 180.091 0 180.108C0 180.125 0 180.142 0 180.159C0 180.176 0 180.194 0 180.211C0 180.228 0 180.245 0 180.262C0 180.279 0 180.296 0 180.313C0 180.331 0 180.348 0 180.365C0 180.382 0 180.399 0 180.416C0 180.434 0 180.451 0 180.468C0 180.485 0 180.502 0 180.52C0 180.537 0 180.554 0 180.571C0 180.589 0 180.606 0 180.623C0 180.64 0 180.658 0 180.675C0 180.692 0 180.709 0 180.727C0 180.744 0 180.761 0 180.778C0 180.796 0 180.813 0 180.83C0 180.848 0 180.865 0 180.882C0 180.9 0 180.917 0 180.934C0 180.952 0 180.969 0 180.986C0 181.004 0 181.021 0 181.039C0 181.056 0 181.073 0 181.091C0 181.108 0 181.126 0 181.143C0 181.16 0 181.178 0 181.195C0 181.213 0 181.23 0 181.248C0 181.265 0 181.282 0 181.3C0 181.317 0 181.335 0 181.352C0 181.37 0 181.387 0 181.405C0 181.422 0 181.44 0 181.457C0 181.475 0 181.492 0 181.51C0 181.527 0 181.545 0 181.562C0 181.58 0 181.597 0 181.615C0 181.632 0 181.65 0 181.668C0 181.685 0 181.703 0 181.72C0 181.738 0 181.755 0 181.773C0 181.791 0 181.808 0 181.826C0 181.843 0 181.861 0 181.879C0 181.896 0 181.914 0 181.932C0 181.949 0 181.967 0 181.984C0 182.002 0 182.02 0 182.037C0 182.055 0 182.073 0 182.09C0 182.108 0 182.126 0 182.143C0 182.161 0 182.179 0 182.196C0 182.214 0 182.232 0 182.25C0 182.267 0 182.285 0 182.303C0 182.32 0 182.338 0 182.356C0 182.374 0 182.391 0 182.409C0 182.427 0 182.445 0 182.462C0 182.48 0 182.498 0 182.516C0 182.533 0 182.551 0 182.569C0 182.587 0 182.604 0 182.622C0 182.64 0 182.658 0 182.676C0 182.693 0 182.711 0 182.729C0 182.747 0 182.765 0 182.783C0 182.8 0 182.818 0 182.836C0 182.854 0 182.872 0 182.89C0 182.907 0 182.925 0 182.943C0 182.961 0 182.979 0 182.997C0 183.015 0 183.032 0 183.05C0 183.068 0 183.086 0 183.104C0 183.122 0 183.14 0 183.158C0 183.176 0 183.193 0 183.211C0 183.229 0 183.247 0 183.265C0 183.283 0 183.301 0 183.319C0 183.337 0 183.355 0 183.373C0 183.391 0 183.409 0 183.426C0 183.444 0 183.462 0 183.48C0 183.498 0 183.516 0 183.534C0 183.552 0 183.57 0 183.588C0 183.606 0 183.624 0 183.642C0 183.66 0 183.678 0 183.696C0 183.714 0 183.732 0 183.75C0 183.768 0 183.786 0 183.804C0 183.822 0 183.84 0 183.858C0 183.876 0 183.894 0 183.912C0 183.93 0 183.948 0 183.966C0 183.984 0 184.002 0 184.02C0 184.038 0 184.056 0 184.074C0 184.092 0 184.11 0 184.129C0 184.147 0 184.165 0 184.183C0 184.201 0 184.219 0 184.237C0 184.255 0 184.273 0 184.291C0 184.309 0 184.327 0 184.345C0 184.363 0 184.382 0 184.4C0 184.418 0 184.436 0 184.454C0 184.472 0 184.49 0 184.508C0 184.526 0 184.544 0 184.563C0 184.581 0 184.599 0 184.617C0 184.635 0 184.653 0 184.671C0 184.689 0 184.707 0 184.726C0 184.744 0 184.762 0 184.78C0 184.798 0 184.816 0 184.834C0 184.852 0 184.871 0 184.889C0 184.907 0 184.925 0 184.943C0 184.961 0 184.98 0 184.998C0 185.016 0 185.034 0 185.052C0 185.07 0 185.088 0 185.107C0 185.125 0 185.143 0 185.161C0 185.179 0 185.197 0 185.216C0 185.234 0 185.252 0 185.27C0 185.288 0 185.307 0 185.325C0 185.343 0 185.361 0 185.379C0 185.397 0 185.416 0 185.434C0 185.452 0 185.47 0 185.488C0 185.507 0 185.525 0 185.543C0 185.561 0 185.579 0 185.598C0 185.616 0 185.634 0 185.652C0 185.67 0 185.689 0 185.707C0 185.725 0 185.743 0 185.761C0 185.78 0 185.798 0 185.816C0 185.834 0 185.852 0 185.871C0 185.889 0 185.907 0 185.925C0 185.944 0 185.962 0 185.98C0 185.998 0 186.016 0 186.035C0 186.053 0 186.071 0 186.089C0 186.108 0 186.126 0 186.144C0 186.162 0 186.18 0 186.199C0 186.217 0 186.235 0 186.253C0 186.272 0 186.29 0 186.308C0 186.326 0 186.345 0 186.363C0 186.381 0 186.399 0 186.417C0 186.436 0 186.454 0 186.472C0 186.49 0 186.509 0 186.527C0 186.545 0 186.563 0 186.582C0 186.6 0 186.618 0 186.636C0 186.655 0 186.673 0 186.691C0 186.709 0 186.727 0 186.746C0 186.764 0 186.782 0 186.8C0 186.819 0 186.837 0 186.855C0 186.873 0 186.892 0 186.91C0 186.928 0 186.946 0 186.965C0 186.983 0 187.001 0 187.019C0 187.038 0 187.056 0 187.074C0 187.092 0 187.111 0 187.129C0 187.147 0 187.165 0 187.183C0 187.202 0 187.22 0 187.238C0 187.256 0 187.275 0 187.293C0 187.311 0 187.329 0 187.348C0 187.366 0 187.384 0 187.402C0 187.421 0 187.439 0 187.457C0 187.475 0 187.493 0 187.512C0 187.53 0 187.548 0 187.566C0 187.585 0 187.603 0 187.621C0 187.639 0 187.658 0 187.676C0 187.694 0 187.712 0 187.73C0 187.749 0 187.767 0 187.785C0 187.803 0 187.822 0 187.84C0 187.858 0 187.876 0 187.894C0 187.913 0 187.931 0 187.949C0 187.967 0 187.985 0 188.004C0 188.022 0 188.04 0 188.058C0 188.076 0 188.095 0 188.113C0 188.131 0 188.149 0 188.167C0 188.186 0 188.204 0 188.222C0 188.24 0 188.258 0 188.277C0 188.295 0 188.313 0 188.331C0 188.349 0 188.368 0 188.386C0 188.404 0 188.422 0 188.44C0 188.459 0 188.477 0 188.495C0 188.513 0 188.531 0 188.549C0 188.568 0 188.586 0 188.604C0 188.622 0 188.64 0 188.658C0 188.677 0 188.695 0 188.713C0 188.731 0 188.749 0 188.767C0 188.786 0 188.804 0 188.822C0 188.84 0 188.858 0 188.876C0 188.894 0 188.913 0 188.931C0 188.949 0 188.967 0 188.985C0 189.003 0 189.021 0 189.039C0 189.058 0 189.076 0 189.094C0 189.112 0 189.13 0 189.148C0 189.166 0 189.184 0 189.203C0 189.221 0 189.239 0 189.257C0 189.275 0 189.293 0 189.311C0 189.329 0 189.347 0 189.365C0 189.383 0 189.402 0 189.42C0 189.438 0 189.456 0 189.474C0 189.492 0 189.51 0 189.528C0 189.546 0 189.564 0 189.582C0 189.6 0 189.618 0 189.636C0 189.655 0 189.673 0 189.691C0 189.709 0 189.727 0 189.745C0 189.763 0 189.781 0 189.799C0 189.817 0 189.835 0 189.853C0 189.871 0 189.889 0 189.907C0 189.925 0 189.943 0 189.961C0 189.979 0 189.997 0 190.015C0 190.033 0 190.051 0 190.069C0 190.087 0 190.105 0 190.123C0 190.141 0 190.159 0 190.177C0 190.195 0 190.213 0 190.231C0 190.249 0 190.267 0 190.285C0 190.303 0 190.321 0 190.339C0 190.356 0 190.374 0 190.392C0 190.41 0 190.428 0 190.446C0 190.464 0 190.482 0 190.5C0 190.518 0 190.536 0 190.554C0 190.572 0 190.589 0 190.607C0 190.625 0 190.643 0 190.661C0 190.679 0 190.697 0 190.715C0 190.733 0 190.75 0 190.768C0 190.786 0 190.804 0 190.822C0 190.84 0 190.858 0 190.875C0 190.893 0 190.911 0 190.929C0 190.947 0 190.965 0 190.982C0 191 0 191.018 0 191.036C0 191.054 0 191.072 0 191.089C0 191.107 0 191.125 0 191.143C0 191.16 0 191.178 0 191.196C0 191.214 0 191.232 0 191.249C0 191.267 0 191.285 0 191.303C0 191.32 0 191.338 0 191.356C0 191.374 0 191.391 0 191.409C0 191.427 0 191.445 0 191.462C0 191.48 0 191.498 0 191.515C0 191.533 0 191.551 0 191.569C0 191.586 0 191.604 0 191.622C0 191.639 0 191.657 0 191.675C0 191.692 0 191.71 0 191.728C0 191.745 0 191.763 0 191.781C0 191.798 0 191.816 0 191.833C0 191.851 0 191.869 0 191.886C0 191.904 0 191.922 0 191.939C0 191.957 0 191.974 0 191.992C0 192.009 0 192.027 0 192.045C0 192.062 0 192.08 0 192.097C0 192.115 0 192.132 0 192.15C0 192.168 0 192.185 0 192.203C0 192.22 0 192.238 0 192.255C0 192.273 0 192.29 0 192.308C0 192.325 0 192.343 0 192.36C0 192.378 0 192.395 0 192.413C0 192.43 0 192.448 0 192.465C0 192.482 0 192.5 0 192.517C0 192.535 0 192.552 0 192.57C0 192.587 0 192.605 0 192.622C0 192.639 0 192.657 0 192.674C0 192.692 0 192.709 0 192.726C0 192.744 0 192.761 0 192.778C0 192.796 0 192.813 0 192.831C0 192.848 0 192.865 0 192.883C0 192.9 0 192.917 0 192.934C0 192.952 0 192.969 0 192.986C0 193.004 0 193.021 0 193.038C0 193.056 0 193.073 0 193.09C0 193.107 0 193.125 0 193.142C0 193.159 0 193.176 0 193.194C0 193.211 0 193.228 0 193.245C0 193.262 0 193.28 0 193.297C0 193.314 0 193.331 0 193.348C0 193.366 0 193.383 0 193.4C0 193.417 0 193.434 0 193.451C0 193.469 0 193.486 0 193.503C0 193.52 0 193.537 0 193.554C0 193.571 0 193.588 0 193.605C0 193.623 0 193.64 0 193.657C0 193.674 0 193.691 0 193.708C0 193.725 0 193.742 0 193.759C0 193.776 0 193.793 0 193.81C0 193.827 0 193.844 0 193.861C0 193.878 0 193.895 0 193.912C0 193.929 0 193.946 0 193.963C0 193.98 0 193.997 0 194.014C0 194.031 0 194.048 0 194.065C0 194.082 0 194.098 0 194.115C0 194.132 0 194.149 0 194.166C0 194.183 0 194.2 0 194.217C0 194.233 0 194.25 0 194.267C0 194.284 0 194.301 0 194.318C0 194.334 0 194.351 0 194.368C0 194.385 0 194.402 0 194.418C0 194.435 0 194.452 0 194.469C0 194.485 0 194.502 0 194.519C0 194.536 0 194.552 0 194.569C0 194.586 0 194.603 0 194.619C0 194.636 0 194.653 0 194.669C0 194.686 0 194.703 0 194.719C0 194.736 0 194.753 0 194.769C0 194.786 0 194.802 0 194.819C0 194.836 0 194.852 0 194.869C0 194.885 0 194.902 0 194.919C0 194.935 0 194.952 0 194.968C0 194.985 0 195.001 0 195.018C0 195.034 0 195.051 0 195.067C0 195.084 0 195.1 0 195.117C0 195.133 0 195.15 0 195.166C0 195.183 0 195.199 0 195.216C0 195.232 0 195.248 0 195.265C0 195.281 0 195.298 0 195.314C0 195.33 0 195.347 0 195.363C0 195.379 0 195.396 0 195.412C0 195.428 0 195.445 0 195.461C0 195.477 0 195.494 0 195.51C0 195.526 0 195.543 0 195.559C0 195.575 0 195.591 0 195.608C0 195.624 0 195.64 0 195.656C0 195.672 0 195.689 0 195.705C0 195.721 0 195.737 0 195.753C0 195.77 0 195.786 0 195.802C0 195.818 0 195.834 0 195.85C0 195.866 0 195.882 0 195.899C0 195.915 0 195.931 0 195.947C0 195.963 0 195.979 0 195.995C0 196.011 0 196.027 0 196.043C0 196.059 0 196.075 0 196.091C0 196.107 0 196.123 0 196.139C0 196.155 0 196.171 0 196.187C0 196.203 0 196.219 0 196.235C0 196.251 0 196.266 0 196.282C0 196.298 0 196.314 0 196.33C0 196.346 0 196.362 0 196.377C0 196.393 0 196.409 0 196.425C0 196.441 0 196.457 0 196.472C0 196.488 0 196.504 0 196.52C0 196.535 0 196.551 0 196.567C0 196.583 0 196.598 0 196.614C0 196.63 0 196.645 0 196.661C0 196.677 0 196.692 0 196.708C0 196.724 0 196.739 0 196.755C0 196.771 0 196.786 0 196.802C0 196.817 0 196.833 0 196.848C0 196.864 0 196.88 0 196.895C0 196.911 0 196.926 0 196.942C0 196.957 0 196.973 0 196.988C0 197.004 0 197.019 0 197.035C0 197.05 0 197.065 0 197.081C0 197.096 0 197.112 0 197.127C0 197.142 0 197.158 0 197.173C0 197.189 0 197.204 0 197.219C0 197.235 0 197.25 0 197.265C0 197.28 0 197.296 0 197.311C0 197.326 0 197.342 0 197.357C0 197.372 0 197.387 0 197.403C0 197.418 0 197.433 0 197.448C0 197.463 0 197.478 0 197.494C0 197.509 0 197.524 0 197.539C0 197.554 0 197.569 0 197.584C0 197.599 0 197.615 0 197.63C0 197.645 0 197.66 0 197.675C0 197.69 0 197.705 0 197.72C0 197.735 0 197.75 0 197.765C0 197.78 0 197.795 0 197.81C0 197.825 0 197.84 0 197.854C0 197.869 0 197.884 0 197.899C0 197.914 0 197.929 0 197.944C0 197.959 0 197.973 0 197.988C0 198.003 0 198.018 0 198.033C0 198.047 0 198.062 0 198.077C0 198.092 0 198.106 0 198.121C0 198.136 0 198.151 0 198.165C0 198.18 0 198.195 0 198.209C0 198.224 0 198.239 0 198.253C0 198.268 0 198.282 0 198.297C0 198.312 0 198.326 0 198.341C0 198.355 0 198.37 0 198.384C0 198.399 0 198.413 0 198.428C0 198.442 0 198.457 0 198.471C0 198.486 0 198.5 0 198.515C0 198.529 0 198.544 0 198.558C0 198.572 0 198.587 0 198.601C0 198.615 0 198.63 0 198.644C0 198.658 0 198.673 0 198.687C0 198.701 0 198.716 0 198.73C0 198.744 0 198.758 0 198.773C0 198.787 0 198.801 0 198.815C0 198.829 0 198.844 0 198.858C0 198.872 0 198.886 0 198.9C0 198.914 0 198.928 0 198.942C0 198.956 0 198.971 0 198.985C0 198.999 0 199.013 0 199.027C0 199.041 0 199.055 0 199.069C0 199.083 0 199.097 0 199.111C0 199.125 0 199.138 0 199.152C0 199.166 0 199.18 0 199.194C0 199.208 0 199.222 0 199.236C0 199.249 0 199.263 0 199.277C0 199.291 0 199.305 0 199.318C0 199.332 0 199.346 0 199.36C0 199.373 0 199.387 0 199.401C0 199.415 0 199.428 0 199.442C0 199.455 0 199.469 0 199.483C0 199.496 0 199.51 0 199.524C0 199.537 0 199.551 0 199.564C0 199.578 0 199.591 0 199.605C0 199.618 0 199.632 0 199.645C0 199.659 0 199.672 0 199.686C0 199.699 0 199.713 0 199.726C0 199.739 0 199.753 0 199.766C0 199.779 0 199.793 0 199.806C0 199.819 0 199.833 0 199.846C0 199.859 0 199.873 0 199.886C0 199.899 0 199.912 0 199.925C0 199.939 0 199.952 0 199.965C0 199.978 0 199.991 0 200.004C0 200.018 0 200.031 0 200.044C0 200.057 0 200.07 0 200.083C0 200.096 0 200.109 0 200.122C0 200.135 0 200.148 0 200.161C0 200.174 0 200.187 0 200.2C0 200.213 0 200.226 0 200.239C0 200.252 0 200.265 0 200.277C0 200.29 0 200.303 0 200.316C0 200.329 0 200.342 0 200.354C0 200.367 0 200.38 0 200.393C0 200.405 0 200.418 0 200.431C0 200.443 0 200.456 0 200.469C0 200.481 0 200.494 0 200.507C0 200.519 0 200.532 0 200.544C0 200.557 0 200.57 0 200.582C0 200.595 0 200.607 0 200.62C0 200.632 0 200.645 0 200.657C0 200.67 0 200.682 0 200.694C0 200.707 0 200.719 0 200.732C0 200.744 0 200.756 0 200.769C0 200.781 0 200.793 0 200.806C0 200.818 0 200.83 0 200.842C0 200.855 0 200.867 0 200.879C0 200.891 0 200.903 0 200.916C0 200.928 0 200.94 0 200.952C0 200.964 0 200.976 0 200.988C0 201 0 201.012 0 201.024C0 201.036 0 201.048 0 201.06C0 201.072 0 201.084 0 201.096C0 201.108 0 201.12 0 201.132C0 201.144 0 201.156 0 201.168C0 201.18 0 201.192 0 201.203C0 201.215 0 201.227 0 201.239C0 201.251 0 201.262 0 201.274C0 201.286 0 201.297 0 201.309C0 201.321 0 201.332 0 201.344C0 201.356 0 201.367 0 201.379C0 201.391 0 201.402 0 201.414C0 201.425 0 201.437 0 201.448C0 201.46 0 201.471 0 201.483C0 201.494 0 201.506 0 201.517C0 201.529 0 201.54 0 201.551C0 201.563 0 201.574 0 201.585C0 201.597 0 201.608 0 201.619C0 201.631 0 201.642 0 201.653C0 201.664 0 201.676 0 201.687C0 201.698 0 201.709 0 201.72C0 201.732 0 201.743 0 201.754C0 201.765 0 201.776 0 201.787C0 201.798 0 201.809 0 201.82C0 201.831 0 201.842 0 201.853C0 201.864 0 201.875 0 201.886C0 201.897 0 201.908 0 201.919C0 201.93 0 201.94 0 201.951C0 201.962 0 201.973 0 201.984C0 201.994 0 202.005 0 202.016C0 202.027 0 202.037 0 202.048C0 202.059 0 202.069 0 202.08C0 202.091 0 202.101 0 202.112C0 202.123 0 202.133 0 202.144C0 202.154 0 202.165 0 202.175C0 202.186 0 202.196 0 202.207C0 202.217 0 202.228 0 202.238C0 202.248 0 202.259 0 202.269C0 202.28 0 202.29 0 202.3C0 202.31 0 202.321 0 202.331C0 202.341 0 202.352 0 202.362C0 202.372 0 202.382 0 202.392C0 202.402 0 202.413 0 202.423C0 202.433 0 202.443 0 202.453C0 202.463 0 202.473 0 202.483C0 202.493 0 202.503 0 202.513C0 202.523 0 202.533 0 202.543C0 202.553 0 202.563 0 202.573C0 202.583 0 202.592 0 202.602C0 202.612 0 202.622 0 202.632C0 202.641 0 202.651 0 202.661C0 202.671 0 202.68 0 202.69C0 202.7 0 202.709 0 202.719C0 202.729 0 202.738 0 202.748C0 202.757 0 202.767 0 202.776C0 202.786 0 202.795 0 202.805C0 202.814 0 202.824 0 202.833C0 202.843 0 202.852 0 202.861C0 202.871 0 202.88 0 202.889C0 202.899 0 202.908 0 202.917C0 202.927 0 202.936 0 202.945C0 202.954 0 202.963 0 202.973C0 202.982 0 202.991 0 203H6C6 202.991 6 202.982 6 202.973C6 202.963 6 202.954 6 202.945C6 202.936 6 202.927 6 202.917C6 202.908 6 202.899 6 202.889C6 202.88 6 202.871 6 202.861C6 202.852 6 202.843 6 202.833C6 202.824 6 202.814 6 202.805C6 202.795 6 202.786 6 202.776C6 202.767 6 202.757 6 202.748C6 202.738 6 202.729 6 202.719C6 202.709 6 202.7 6 202.69C6 202.68 6 202.671 6 202.661C6 202.651 6 202.641 6 202.632C6 202.622 6 202.612 6 202.602C6 202.592 6 202.583 6 202.573C6 202.563 6 202.553 6 202.543C6 202.533 6 202.523 6 202.513C6 202.503 6 202.493 6 202.483C6 202.473 6 202.463 6 202.453C6 202.443 6 202.433 6 202.423C6 202.413 6 202.402 6 202.392C6 202.382 6 202.372 6 202.362C6 202.352 6 202.341 6 202.331C6 202.321 6 202.31 6 202.3C6 202.29 6 202.28 6 202.269C6 202.259 6 202.248 6 202.238C6 202.228 6 202.217 6 202.207C6 202.196 6 202.186 6 202.175C6 202.165 6 202.154 6 202.144C6 202.133 6 202.123 6 202.112C6 202.101 6 202.091 6 202.08C6 202.069 6 202.059 6 202.048C6 202.037 6 202.027 6 202.016C6 202.005 6 201.994 6 201.984C6 201.973 6 201.962 6 201.951C6 201.94 6 201.93 6 201.919C6 201.908 6 201.897 6 201.886C6 201.875 6 201.864 6 201.853C6 201.842 6 201.831 6 201.82C6 201.809 6 201.798 6 201.787C6 201.776 6 201.765 6 201.754C6 201.743 6 201.732 6 201.72C6 201.709 6 201.698 6 201.687C6 201.676 6 201.664 6 201.653C6 201.642 6 201.631 6 201.619C6 201.608 6 201.597 6 201.585C6 201.574 6 201.563 6 201.551C6 201.54 6 201.529 6 201.517C6 201.506 6 201.494 6 201.483C6 201.471 6 201.46 6 201.448C6 201.437 6 201.425 6 201.414C6 201.402 6 201.391 6 201.379C6 201.367 6 201.356 6 201.344C6 201.332 6 201.321 6 201.309C6 201.297 6 201.286 6 201.274C6 201.262 6 201.251 6 201.239C6 201.227 6 201.215 6 201.203C6 201.192 6 201.18 6 201.168C6 201.156 6 201.144 6 201.132C6 201.12 6 201.108 6 201.096C6 201.084 6 201.072 6 201.06C6 201.048 6 201.036 6 201.024C6 201.012 6 201 6 200.988C6 200.976 6 200.964 6 200.952C6 200.94 6 200.928 6 200.916C6 200.903 6 200.891 6 200.879C6 200.867 6 200.855 6 200.842C6 200.83 6 200.818 6 200.806C6 200.793 6 200.781 6 200.769C6 200.756 6 200.744 6 200.732C6 200.719 6 200.707 6 200.694C6 200.682 6 200.67 6 200.657C6 200.645 6 200.632 6 200.62C6 200.607 6 200.595 6 200.582C6 200.57 6 200.557 6 200.544C6 200.532 6 200.519 6 200.507C6 200.494 6 200.481 6 200.469C6 200.456 6 200.443 6 200.431C6 200.418 6 200.405 6 200.393C6 200.38 6 200.367 6 200.354C6 200.342 6 200.329 6 200.316C6 200.303 6 200.29 6 200.277C6 200.265 6 200.252 6 200.239C6 200.226 6 200.213 6 200.2C6 200.187 6 200.174 6 200.161C6 200.148 6 200.135 6 200.122C6 200.109 6 200.096 6 200.083C6 200.07 6 200.057 6 200.044C6 200.031 6 200.018 6 200.004C6 199.991 6 199.978 6 199.965C6 199.952 6 199.939 6 199.925C6 199.912 6 199.899 6 199.886C6 199.873 6 199.859 6 199.846C6 199.833 6 199.819 6 199.806C6 199.793 6 199.779 6 199.766C6 199.753 6 199.739 6 199.726C6 199.713 6 199.699 6 199.686C6 199.672 6 199.659 6 199.645C6 199.632 6 199.618 6 199.605C6 199.591 6 199.578 6 199.564C6 199.551 6 199.537 6 199.524C6 199.51 6 199.496 6 199.483C6 199.469 6 199.455 6 199.442C6 199.428 6 199.415 6 199.401C6 199.387 6 199.373 6 199.36C6 199.346 6 199.332 6 199.318C6 199.305 6 199.291 6 199.277C6 199.263 6 199.249 6 199.236C6 199.222 6 199.208 6 199.194C6 199.18 6 199.166 6 199.152C6 199.138 6 199.125 6 199.111C6 199.097 6 199.083 6 199.069C6 199.055 6 199.041 6 199.027C6 199.013 6 198.999 6 198.985C6 198.971 6 198.956 6 198.942C6 198.928 6 198.914 6 198.9C6 198.886 6 198.872 6 198.858C6 198.844 6 198.829 6 198.815C6 198.801 6 198.787 6 198.773C6 198.758 6 198.744 6 198.73C6 198.716 6 198.701 6 198.687C6 198.673 6 198.658 6 198.644C6 198.63 6 198.615 6 198.601C6 198.587 6 198.572 6 198.558C6 198.544 6 198.529 6 198.515C6 198.5 6 198.486 6 198.471C6 198.457 6 198.442 6 198.428C6 198.413 6 198.399 6 198.384C6 198.37 6 198.355 6 198.341C6 198.326 6 198.312 6 198.297C6 198.282 6 198.268 6 198.253C6 198.239 6 198.224 6 198.209C6 198.195 6 198.18 6 198.165C6 198.151 6 198.136 6 198.121C6 198.106 6 198.092 6 198.077C6 198.062 6 198.047 6 198.033C6 198.018 6 198.003 6 197.988C6 197.973 6 197.959 6 197.944C6 197.929 6 197.914 6 197.899C6 197.884 6 197.869 6 197.854C6 197.84 6 197.825 6 197.81C6 197.795 6 197.78 6 197.765C6 197.75 6 197.735 6 197.72C6 197.705 6 197.69 6 197.675C6 197.66 6 197.645 6 197.63C6 197.615 6 197.599 6 197.584C6 197.569 6 197.554 6 197.539C6 197.524 6 197.509 6 197.494C6 197.478 6 197.463 6 197.448C6 197.433 6 197.418 6 197.403C6 197.387 6 197.372 6 197.357C6 197.342 6 197.326 6 197.311C6 197.296 6 197.28 6 197.265C6 197.25 6 197.235 6 197.219C6 197.204 6 197.189 6 197.173C6 197.158 6 197.142 6 197.127C6 197.112 6 197.096 6 197.081C6 197.065 6 197.05 6 197.035C6 197.019 6 197.004 6 196.988C6 196.973 6 196.957 6 196.942C6 196.926 6 196.911 6 196.895C6 196.88 6 196.864 6 196.848C6 196.833 6 196.817 6 196.802C6 196.786 6 196.771 6 196.755C6 196.739 6 196.724 6 196.708C6 196.692 6 196.677 6 196.661C6 196.645 6 196.63 6 196.614C6 196.598 6 196.583 6 196.567C6 196.551 6 196.535 6 196.52C6 196.504 6 196.488 6 196.472C6 196.457 6 196.441 6 196.425C6 196.409 6 196.393 6 196.377C6 196.362 6 196.346 6 196.33C6 196.314 6 196.298 6 196.282C6 196.266 6 196.251 6 196.235C6 196.219 6 196.203 6 196.187C6 196.171 6 196.155 6 196.139C6 196.123 6 196.107 6 196.091C6 196.075 6 196.059 6 196.043C6 196.027 6 196.011 6 195.995C6 195.979 6 195.963 6 195.947C6 195.931 6 195.915 6 195.899C6 195.882 6 195.866 6 195.85C6 195.834 6 195.818 6 195.802C6 195.786 6 195.77 6 195.753C6 195.737 6 195.721 6 195.705C6 195.689 6 195.672 6 195.656C6 195.64 6 195.624 6 195.608C6 195.591 6 195.575 6 195.559C6 195.543 6 195.526 6 195.51C6 195.494 6 195.477 6 195.461C6 195.445 6 195.428 6 195.412C6 195.396 6 195.379 6 195.363C6 195.347 6 195.33 6 195.314C6 195.298 6 195.281 6 195.265C6 195.248 6 195.232 6 195.216C6 195.199 6 195.183 6 195.166C6 195.15 6 195.133 6 195.117C6 195.1 6 195.084 6 195.067C6 195.051 6 195.034 6 195.018C6 195.001 6 194.985 6 194.968C6 194.952 6 194.935 6 194.919C6 194.902 6 194.885 6 194.869C6 194.852 6 194.836 6 194.819C6 194.802 6 194.786 6 194.769C6 194.753 6 194.736 6 194.719C6 194.703 6 194.686 6 194.669C6 194.653 6 194.636 6 194.619C6 194.603 6 194.586 6 194.569C6 194.552 6 194.536 6 194.519C6 194.502 6 194.485 6 194.469C6 194.452 6 194.435 6 194.418C6 194.402 6 194.385 6 194.368C6 194.351 6 194.334 6 194.318C6 194.301 6 194.284 6 194.267C6 194.25 6 194.233 6 194.217C6 194.2 6 194.183 6 194.166C6 194.149 6 194.132 6 194.115C6 194.098 6 194.082 6 194.065C6 194.048 6 194.031 6 194.014C6 193.997 6 193.98 6 193.963C6 193.946 6 193.929 6 193.912C6 193.895 6 193.878 6 193.861C6 193.844 6 193.827 6 193.81C6 193.793 6 193.776 6 193.759C6 193.742 6 193.725 6 193.708C6 193.691 6 193.674 6 193.657C6 193.64 6 193.623 6 193.605C6 193.588 6 193.571 6 193.554C6 193.537 6 193.52 6 193.503C6 193.486 6 193.469 6 193.451C6 193.434 6 193.417 6 193.4C6 193.383 6 193.366 6 193.348C6 193.331 6 193.314 6 193.297C6 193.28 6 193.262 6 193.245C6 193.228 6 193.211 6 193.194C6 193.176 6 193.159 6 193.142C6 193.125 6 193.107 6 193.09C6 193.073 6 193.056 6 193.038C6 193.021 6 193.004 6 192.986C6 192.969 6 192.952 6 192.934C6 192.917 6 192.9 6 192.883C6 192.865 6 192.848 6 192.831C6 192.813 6 192.796 6 192.778C6 192.761 6 192.744 6 192.726C6 192.709 6 192.692 6 192.674C6 192.657 6 192.639 6 192.622C6 192.605 6 192.587 6 192.57C6 192.552 6 192.535 6 192.517C6 192.5 6 192.482 6 192.465C6 192.448 6 192.43 6 192.413C6 192.395 6 192.378 6 192.36C6 192.343 6 192.325 6 192.308C6 192.29 6 192.273 6 192.255C6 192.238 6 192.22 6 192.203C6 192.185 6 192.168 6 192.15C6 192.132 6 192.115 6 192.097C6 192.08 6 192.062 6 192.045C6 192.027 6 192.009 6 191.992C6 191.974 6 191.957 6 191.939C6 191.922 6 191.904 6 191.886C6 191.869 6 191.851 6 191.833C6 191.816 6 191.798 6 191.781C6 191.763 6 191.745 6 191.728C6 191.71 6 191.692 6 191.675C6 191.657 6 191.639 6 191.622C6 191.604 6 191.586 6 191.569C6 191.551 6 191.533 6 191.515C6 191.498 6 191.48 6 191.462C6 191.445 6 191.427 6 191.409C6 191.391 6 191.374 6 191.356C6 191.338 6 191.32 6 191.303C6 191.285 6 191.267 6 191.249C6 191.232 6 191.214 6 191.196C6 191.178 6 191.16 6 191.143C6 191.125 6 191.107 6 191.089C6 191.072 6 191.054 6 191.036C6 191.018 6 191 6 190.982C6 190.965 6 190.947 6 190.929C6 190.911 6 190.893 6 190.875C6 190.858 6 190.84 6 190.822C6 190.804 6 190.786 6 190.768C6 190.75 6 190.733 6 190.715C6 190.697 6 190.679 6 190.661C6 190.643 6 190.625 6 190.607C6 190.589 6 190.572 6 190.554C6 190.536 6 190.518 6 190.5C6 190.482 6 190.464 6 190.446C6 190.428 6 190.41 6 190.392C6 190.374 6 190.356 6 190.339C6 190.321 6 190.303 6 190.285C6 190.267 6 190.249 6 190.231C6 190.213 6 190.195 6 190.177C6 190.159 6 190.141 6 190.123C6 190.105 6 190.087 6 190.069C6 190.051 6 190.033 6 190.015C6 189.997 6 189.979 6 189.961C6 189.943 6 189.925 6 189.907C6 189.889 6 189.871 6 189.853C6 189.835 6 189.817 6 189.799C6 189.781 6 189.763 6 189.745C6 189.727 6 189.709 6 189.691C6 189.673 6 189.655 6 189.636C6 189.618 6 189.6 6 189.582C6 189.564 6 189.546 6 189.528C6 189.51 6 189.492 6 189.474C6 189.456 6 189.438 6 189.42C6 189.402 6 189.383 6 189.365C6 189.347 6 189.329 6 189.311C6 189.293 6 189.275 6 189.257C6 189.239 6 189.221 6 189.203C6 189.184 6 189.166 6 189.148C6 189.13 6 189.112 6 189.094C6 189.076 6 189.058 6 189.039C6 189.021 6 189.003 6 188.985C6 188.967 6 188.949 6 188.931C6 188.913 6 188.894 6 188.876C6 188.858 6 188.84 6 188.822C6 188.804 6 188.786 6 188.767C6 188.749 6 188.731 6 188.713C6 188.695 6 188.677 6 188.658C6 188.64 6 188.622 6 188.604C6 188.586 6 188.568 6 188.549C6 188.531 6 188.513 6 188.495C6 188.477 6 188.459 6 188.44C6 188.422 6 188.404 6 188.386C6 188.368 6 188.349 6 188.331C6 188.313 6 188.295 6 188.277C6 188.258 6 188.24 6 188.222C6 188.204 6 188.186 6 188.167C6 188.149 6 188.131 6 188.113C6 188.095 6 188.076 6 188.058C6 188.04 6 188.022 6 188.004C6 187.985 6 187.967 6 187.949C6 187.931 6 187.913 6 187.894C6 187.876 6 187.858 6 187.84C6 187.822 6 187.803 6 187.785C6 187.767 6 187.749 6 187.73C6 187.712 6 187.694 6 187.676C6 187.658 6 187.639 6 187.621C6 187.603 6 187.585 6 187.566C6 187.548 6 187.53 6 187.512C6 187.493 6 187.475 6 187.457C6 187.439 6 187.421 6 187.402C6 187.384 6 187.366 6 187.348C6 187.329 6 187.311 6 187.293C6 187.275 6 187.256 6 187.238C6 187.22 6 187.202 6 187.183C6 187.165 6 187.147 6 187.129C6 187.111 6 187.092 6 187.074C6 187.056 6 187.038 6 187.019C6 187.001 6 186.983 6 186.965C6 186.946 6 186.928 6 186.91C6 186.892 6 186.873 6 186.855C6 186.837 6 186.819 6 186.8C6 186.782 6 186.764 6 186.746C6 186.727 6 186.709 6 186.691C6 186.673 6 186.655 6 186.636C6 186.618 6 186.6 6 186.582C6 186.563 6 186.545 6 186.527C6 186.509 6 186.49 6 186.472C6 186.454 6 186.436 6 186.417C6 186.399 6 186.381 6 186.363C6 186.345 6 186.326 6 186.308C6 186.29 6 186.272 6 186.253C6 186.235 6 186.217 6 186.199C6 186.18 6 186.162 6 186.144C6 186.126 6 186.108 6 186.089C6 186.071 6 186.053 6 186.035C6 186.016 6 185.998 6 185.98C6 185.962 6 185.944 6 185.925C6 185.907 6 185.889 6 185.871C6 185.852 6 185.834 6 185.816C6 185.798 6 185.78 6 185.761C6 185.743 6 185.725 6 185.707C6 185.689 6 185.67 6 185.652C6 185.634 6 185.616 6 185.598C6 185.579 6 185.561 6 185.543C6 185.525 6 185.507 6 185.488C6 185.47 6 185.452 6 185.434C6 185.416 6 185.397 6 185.379C6 185.361 6 185.343 6 185.325C6 185.307 6 185.288 6 185.27C6 185.252 6 185.234 6 185.216C6 185.197 6 185.179 6 185.161C6 185.143 6 185.125 6 185.107C6 185.088 6 185.07 6 185.052C6 185.034 6 185.016 6 184.998C6 184.98 6 184.961 6 184.943C6 184.925 6 184.907 6 184.889C6 184.871 6 184.852 6 184.834C6 184.816 6 184.798 6 184.78C6 184.762 6 184.744 6 184.726C6 184.707 6 184.689 6 184.671C6 184.653 6 184.635 6 184.617C6 184.599 6 184.581 6 184.563C6 184.544 6 184.526 6 184.508C6 184.49 6 184.472 6 184.454C6 184.436 6 184.418 6 184.4C6 184.382 6 184.363 6 184.345C6 184.327 6 184.309 6 184.291C6 184.273 6 184.255 6 184.237C6 184.219 6 184.201 6 184.183C6 184.165 6 184.147 6 184.129C6 184.11 6 184.092 6 184.074C6 184.056 6 184.038 6 184.02C6 184.002 6 183.984 6 183.966C6 183.948 6 183.93 6 183.912C6 183.894 6 183.876 6 183.858C6 183.84 6 183.822 6 183.804C6 183.786 6 183.768 6 183.75C6 183.732 6 183.714 6 183.696C6 183.678 6 183.66 6 183.642C6 183.624 6 183.606 6 183.588C6 183.57 6 183.552 6 183.534C6 183.516 6 183.498 6 183.48C6 183.462 6 183.444 6 183.426C6 183.409 6 183.391 6 183.373C6 183.355 6 183.337 6 183.319C6 183.301 6 183.283 6 183.265C6 183.247 6 183.229 6 183.211C6 183.193 6 183.176 6 183.158C6 183.14 6 183.122 6 183.104C6 183.086 6 183.068 6 183.05C6 183.032 6 183.015 6 182.997C6 182.979 6 182.961 6 182.943C6 182.925 6 182.907 6 182.89C6 182.872 6 182.854 6 182.836C6 182.818 6 182.8 6 182.783C6 182.765 6 182.747 6 182.729C6 182.711 6 182.693 6 182.676C6 182.658 6 182.64 6 182.622C6 182.604 6 182.587 6 182.569C6 182.551 6 182.533 6 182.516C6 182.498 6 182.48 6 182.462C6 182.445 6 182.427 6 182.409C6 182.391 6 182.374 6 182.356C6 182.338 6 182.32 6 182.303C6 182.285 6 182.267 6 182.25C6 182.232 6 182.214 6 182.196C6 182.179 6 182.161 6 182.143C6 182.126 6 182.108 6 182.09C6 182.073 6 182.055 6 182.037C6 182.02 6 182.002 6 181.984C6 181.967 6 181.949 6 181.932C6 181.914 6 181.896 6 181.879C6 181.861 6 181.843 6 181.826C6 181.808 6 181.791 6 181.773C6 181.755 6 181.738 6 181.72C6 181.703 6 181.685 6 181.668C6 181.65 6 181.632 6 181.615C6 181.597 6 181.58 6 181.562C6 181.545 6 181.527 6 181.51C6 181.492 6 181.475 6 181.457C6 181.44 6 181.422 6 181.405C6 181.387 6 181.37 6 181.352C6 181.335 6 181.317 6 181.3C6 181.282 6 181.265 6 181.248C6 181.23 6 181.213 6 181.195C6 181.178 6 181.16 6 181.143C6 181.126 6 181.108 6 181.091C6 181.073 6 181.056 6 181.039C6 181.021 6 181.004 6 180.986C6 180.969 6 180.952 6 180.934C6 180.917 6 180.9 6 180.882C6 180.865 6 180.848 6 180.83C6 180.813 6 180.796 6 180.778C6 180.761 6 180.744 6 180.727C6 180.709 6 180.692 6 180.675C6 180.658 6 180.64 6 180.623C6 180.606 6 180.589 6 180.571C6 180.554 6 180.537 6 180.52C6 180.502 6 180.485 6 180.468C6 180.451 6 180.434 6 180.416C6 180.399 6 180.382 6 180.365C6 180.348 6 180.331 6 180.313C6 180.296 6 180.279 6 180.262C6 180.245 6 180.228 6 180.211C6 180.194 6 180.176 6 180.159C6 180.142 6 180.125 6 180.108C6 180.091 6 180.074 6 180.057C6 180.04 6 180.023 6 180.006C6 179.989 6 179.972 6 179.955C6 179.938 6 179.921 6 179.904C6 179.887 6 179.87 6 179.853C6 179.836 6 179.819 6 179.802C6 179.785 6 179.768 6 179.751C6 179.734 6 179.717 6 179.7C6 179.683 6 179.666 6 179.65C6 179.633 6 179.616 6 179.599C6 179.582 6 179.565 6 179.548C6 179.531 6 179.515 6 179.498C6 179.481 6 179.464 6 179.447C6 179.43 6 179.414 6 179.397C6 179.38 6 179.363 6 179.346C6 179.33 6 179.313 6 179.296C6 179.279 6 179.263 6 179.246C6 179.229 6 179.212 6 179.196C6 179.179 6 179.162 6 179.146C6 179.129 6 179.112 6 179.095C6 179.079 6 179.062 6 179.046C6 179.029 6 179.012 6 178.996C6 178.979 6 178.962 6 178.946C6 178.929 6 178.913 6 178.896C6 178.879 6 178.863 6 178.846C6 178.83 6 178.813 6 178.797C6 178.78 6 178.763 6 178.747C6 178.73 6 178.714 6 178.697C6 178.681 6 178.664 6 178.648C6 178.631 6 178.615 6 178.599C6 178.582 6 178.566 6 178.549C6 178.533 6 178.516 6 178.5H0ZM0.0684709 203.637C0.574419 205.965 1.92167 209.324 4.40453 212.163C6.94878 215.071 10.7662 217.5 16 217.5V211.5C12.8338 211.5 10.5679 210.095 8.92047 208.212C7.21166 206.259 6.25891 203.869 5.93153 202.363L0.0684709 203.637ZM16 217.5C16.0063 217.5 16.0129 217.5 16.0199 217.5C16.0269 217.5 16.0343 217.5 16.0421 217.5C16.0499 217.5 16.0581 217.5 16.0667 217.5C16.0752 217.5 16.0842 217.5 16.0935 217.5C16.1029 217.5 16.1126 217.5 16.1227 217.5C16.1328 217.5 16.1432 217.5 16.1541 217.5C16.165 217.5 16.1762 217.5 16.1878 217.5C16.1994 217.5 16.2114 217.5 16.2238 217.5C16.2362 217.5 16.249 217.5 16.2621 217.5C16.2752 217.5 16.2887 217.5 16.3026 217.5C16.3165 217.5 16.3308 217.5 16.3454 217.5C16.36 217.5 16.3751 217.5 16.3904 217.5C16.4058 217.5 16.4216 217.5 16.4377 217.5C16.4539 217.5 16.4704 217.5 16.4872 217.5C16.5041 217.5 16.5214 217.5 16.539 217.5C16.5566 217.5 16.5746 217.5 16.5929 217.5C16.6113 217.5 16.63 217.5 16.6491 217.5C16.6682 217.5 16.6877 217.5 16.7075 217.5C16.7273 217.5 16.7475 217.5 16.7681 217.5C16.7887 217.5 16.8096 217.5 16.8309 217.5C16.8522 217.5 16.8738 217.5 16.8959 217.5C16.9179 217.5 16.9403 217.5 16.963 217.5C16.9858 217.5 17.0089 217.5 17.0323 217.5C17.0558 217.5 17.0796 217.5 17.1038 217.5C17.128 217.5 17.1526 217.5 17.1775 217.5C17.2024 217.5 17.2277 217.5 17.2533 217.5C17.2789 217.5 17.3049 217.5 17.3312 217.5C17.3576 217.5 17.3843 217.5 17.4113 217.5C17.4384 217.5 17.4658 217.5 17.4935 217.5C17.5213 217.5 17.5494 217.5 17.5779 217.5C17.6064 217.5 17.6352 217.5 17.6644 217.5C17.6935 217.5 17.7231 217.5 17.7529 217.5C17.7828 217.5 17.813 217.5 17.8436 217.5C17.8742 217.5 17.9051 217.5 17.9364 217.5C17.9677 217.5 17.9993 217.5 18.0313 217.5C18.0632 217.5 18.0955 217.5 18.1282 217.5C18.1609 217.5 18.1939 217.5 18.2272 217.5C18.2606 217.5 18.2943 217.5 18.3283 217.5C18.3624 217.5 18.3968 217.5 18.4315 217.5C18.4662 217.5 18.5013 217.5 18.5367 217.5C18.5721 217.5 18.6079 217.5 18.644 217.5C18.6801 217.5 18.7165 217.5 18.7533 217.5C18.7901 217.5 18.8272 217.5 18.8647 217.5C18.9021 217.5 18.9399 217.5 18.978 217.5C19.0162 217.5 19.0546 217.5 19.0934 217.5C19.1322 217.5 19.1714 217.5 19.2108 217.5C19.2503 217.5 19.2901 217.5 19.3303 217.5C19.3704 217.5 19.4109 217.5 19.4517 217.5C19.4925 217.5 19.5336 217.5 19.5751 217.5C19.6166 217.5 19.6584 217.5 19.7005 217.5C19.7426 217.5 19.7851 217.5 19.8279 217.5C19.8707 217.5 19.9138 217.5 19.9572 217.5C20.0007 217.5 20.0445 217.5 20.0886 217.5C20.1327 217.5 20.1771 217.5 20.2218 217.5C20.2666 217.5 20.3117 217.5 20.3571 217.5C20.4025 217.5 20.4482 217.5 20.4943 217.5C20.5403 217.5 20.5867 217.5 20.6334 217.5C20.6801 217.5 20.7271 217.5 20.7744 217.5C20.8218 217.5 20.8694 217.5 20.9174 217.5C20.9654 217.5 21.0137 217.5 21.0623 217.5C21.1109 217.5 21.1599 217.5 21.2091 217.5C21.2584 217.5 21.3079 217.5 21.3578 217.5C21.4077 217.5 21.4579 217.5 21.5084 217.5C21.559 217.5 21.6098 217.5 21.6609 217.5C21.7121 217.5 21.7635 217.5 21.8153 217.5C21.8671 217.5 21.9192 217.5 21.9716 217.5C22.024 217.5 22.0767 217.5 22.1297 217.5C22.1827 217.5 22.2361 217.5 22.2897 217.5C22.3433 217.5 22.3973 217.5 22.4516 217.5C22.5058 217.5 22.5604 217.5 22.6152 217.5C22.6701 217.5 22.7253 217.5 22.7808 217.5C22.8363 217.5 22.8921 217.5 22.9482 217.5C23.0043 217.5 23.0607 217.5 23.1174 217.5C23.1741 217.5 23.2311 217.5 23.2884 217.5C23.3457 217.5 23.4033 217.5 23.4612 217.5C23.5192 217.5 23.5774 217.5 23.6359 217.5C23.6944 217.5 23.7532 217.5 23.8123 217.5C23.8714 217.5 23.9309 217.5 23.9906 217.5C24.0503 217.5 24.1103 217.5 24.1706 217.5C24.2309 217.5 24.2915 217.5 24.3524 217.5C24.4133 217.5 24.4745 217.5 24.536 217.5C24.5975 217.5 24.6593 217.5 24.7214 217.5C24.7834 217.5 24.8458 217.5 24.9085 217.5C24.9711 217.5 25.0341 217.5 25.0973 217.5C25.1606 217.5 25.2241 217.5 25.2879 217.5C25.3518 217.5 25.4159 217.5 25.4803 217.5C25.5447 217.5 25.6094 217.5 25.6744 217.5C25.7393 217.5 25.8046 217.5 25.8702 217.5C25.9357 217.5 26.0016 217.5 26.0677 217.5C26.1338 217.5 26.2002 217.5 26.2669 217.5C26.3336 217.5 26.4006 217.5 26.4678 217.5C26.5351 217.5 26.6027 217.5 26.6705 217.5C26.7383 217.5 26.8064 217.5 26.8748 217.5C26.9432 217.5 27.0119 217.5 27.0808 217.5C27.1498 217.5 27.219 217.5 27.2885 217.5C27.358 217.5 27.4278 217.5 27.4979 217.5C27.5679 217.5 27.6383 217.5 27.7089 217.5C27.7795 217.5 27.8504 217.5 27.9215 217.5C27.9927 217.5 28.0641 217.5 28.1359 217.5C28.2076 217.5 28.2796 217.5 28.3518 217.5C28.4241 217.5 28.4966 217.5 28.5694 217.5C28.6422 217.5 28.7153 217.5 28.7887 217.5C28.862 217.5 28.9356 217.5 29.0095 217.5C29.0834 217.5 29.1575 217.5 29.232 217.5C29.3064 217.5 29.3811 217.5 29.456 217.5C29.531 217.5 29.6062 217.5 29.6817 217.5C29.7572 217.5 29.833 217.5 29.909 217.5C29.985 217.5 30.0613 217.5 30.1378 217.5C30.2144 217.5 30.2912 217.5 30.3683 217.5C30.4453 217.5 30.5227 217.5 30.6003 217.5C30.6779 217.5 30.7557 217.5 30.8338 217.5C30.912 217.5 30.9903 217.5 31.069 217.5C31.1476 217.5 31.2265 217.5 31.3057 217.5C31.3848 217.5 31.4642 217.5 31.5439 217.5C31.6235 217.5 31.7035 217.5 31.7836 217.5C31.8638 217.5 31.9443 217.5 32.0249 217.5C32.1056 217.5 32.1866 217.5 32.2678 217.5C32.349 217.5 32.4304 217.5 32.5121 217.5C32.5938 217.5 32.6758 217.5 32.758 217.5C32.8402 217.5 32.9226 217.5 33.0053 217.5C33.088 217.5 33.171 217.5 33.2542 217.5C33.3374 217.5 33.4208 217.5 33.5045 217.5C33.5882 217.5 33.6722 217.5 33.7564 217.5C33.8405 217.5 33.925 217.5 34.0097 217.5C34.0943 217.5 34.1793 217.5 34.2644 217.5C34.3496 217.5 34.435 217.5 34.5207 217.5C34.6063 217.5 34.6922 217.5 34.7784 217.5C34.8645 217.5 34.9509 217.5 35.0375 217.5C35.1241 217.5 35.211 217.5 35.2981 217.5C35.3852 217.5 35.4725 217.5 35.5601 217.5C35.6477 217.5 35.7355 217.5 35.8235 217.5C35.9116 217.5 35.9999 217.5 36.0884 217.5C36.1769 217.5 36.2657 217.5 36.3547 217.5C36.4437 217.5 36.5329 217.5 36.6224 217.5C36.7119 217.5 36.8015 217.5 36.8915 217.5C36.9814 217.5 37.0716 217.5 37.162 217.5C37.2524 217.5 37.343 217.5 37.4338 217.5C37.5247 217.5 37.6158 217.5 37.7071 217.5C37.7984 217.5 37.8899 217.5 37.9817 217.5C38.0735 217.5 38.1655 217.5 38.2577 217.5C38.3499 217.5 38.4424 217.5 38.535 217.5C38.6277 217.5 38.7206 217.5 38.8137 217.5C38.9069 217.5 39.0002 217.5 39.0938 217.5C39.1874 217.5 39.2812 217.5 39.3752 217.5C39.4692 217.5 39.5634 217.5 39.6579 217.5C39.7523 217.5 39.847 217.5 39.9419 217.5C40.0368 217.5 40.1319 217.5 40.2273 217.5C40.3226 217.5 40.4182 217.5 40.514 217.5C40.6097 217.5 40.7057 217.5 40.8019 217.5C40.8981 217.5 40.9946 217.5 41.0912 217.5C41.1878 217.5 41.2847 217.5 41.3818 217.5C41.4788 217.5 41.5761 217.5 41.6736 217.5C41.7711 217.5 41.8688 217.5 41.9667 217.5C42.0646 217.5 42.1628 217.5 42.2611 217.5C42.3594 217.5 42.458 217.5 42.5568 217.5C42.6555 217.5 42.7545 217.5 42.8537 217.5C42.9528 217.5 43.0522 217.5 43.1518 217.5C43.2514 217.5 43.3512 217.5 43.4512 217.5C43.5512 217.5 43.6514 217.5 43.7519 217.5C43.8523 217.5 43.9529 217.5 44.0537 217.5C44.1545 217.5 44.2556 217.5 44.3568 217.5C44.458 217.5 44.5595 217.5 44.6611 217.5C44.7627 217.5 44.8646 217.5 44.9666 217.5C45.0686 217.5 45.1709 217.5 45.2733 217.5C45.3757 217.5 45.4784 217.5 45.5812 217.5C45.684 217.5 45.787 217.5 45.8903 217.5C45.9935 217.5 46.0969 217.5 46.2005 217.5C46.3042 217.5 46.408 217.5 46.512 217.5C46.616 217.5 46.7202 217.5 46.8246 217.5C46.929 217.5 47.0336 217.5 47.1383 217.5C47.2431 217.5 47.3481 217.5 47.4532 217.5C47.5584 217.5 47.6638 217.5 47.7693 217.5C47.8748 217.5 47.9806 217.5 48.0865 217.5C48.1924 217.5 48.2985 217.5 48.4048 217.5C48.5111 217.5 48.6176 217.5 48.7243 217.5C48.8309 217.5 48.9378 217.5 49.0448 217.5C49.1519 217.5 49.2591 217.5 49.3665 217.5C49.4739 217.5 49.5815 217.5 49.6893 217.5C49.7971 217.5 49.9051 217.5 50.0132 217.5C50.1213 217.5 50.2297 217.5 50.3382 217.5C50.4467 217.5 50.5554 217.5 50.6642 217.5C50.7731 217.5 50.8821 217.5 50.9913 217.5C51.1006 217.5 51.21 217.5 51.3195 217.5C51.4291 217.5 51.5389 217.5 51.6488 217.5C51.7587 217.5 51.8688 217.5 51.9791 217.5C52.0894 217.5 52.1999 217.5 52.3105 217.5C52.4211 217.5 52.5319 217.5 52.6429 217.5C52.7539 217.5 52.865 217.5 52.9763 217.5C53.0877 217.5 53.1991 217.5 53.3108 217.5C53.4225 217.5 53.5343 217.5 53.6463 217.5C53.7583 217.5 53.8705 217.5 53.9828 217.5C54.0951 217.5 54.2076 217.5 54.3203 217.5C54.433 217.5 54.5458 217.5 54.6588 217.5C54.7718 217.5 54.885 217.5 54.9983 217.5C55.1117 217.5 55.2252 217.5 55.3388 217.5C55.4525 217.5 55.5663 217.5 55.6803 217.5C55.7943 217.5 55.9084 217.5 56.0227 217.5C56.137 217.5 56.2515 217.5 56.3661 217.5C56.4808 217.5 56.5956 217.5 56.7105 217.5C56.8255 217.5 56.9406 217.5 57.0558 217.5C57.1711 217.5 57.2865 217.5 57.4021 217.5C57.5177 217.5 57.6334 217.5 57.7493 217.5C57.8652 217.5 57.9812 217.5 58.0974 217.5C58.2136 217.5 58.33 217.5 58.4465 217.5C58.563 217.5 58.6797 217.5 58.7965 217.5C58.9133 217.5 59.0302 217.5 59.1474 217.5C59.2645 217.5 59.3817 217.5 59.4991 217.5C59.6166 217.5 59.7341 217.5 59.8518 217.5C59.9695 217.5 60.0874 217.5 60.2054 217.5C60.3234 217.5 60.4416 217.5 60.5599 217.5C60.6782 217.5 60.7966 217.5 60.9152 217.5C61.0338 217.5 61.1525 217.5 61.2714 217.5C61.3903 217.5 61.5093 217.5 61.6285 217.5C61.7476 217.5 61.8669 217.5 61.9864 217.5C62.1058 217.5 62.2254 217.5 62.3452 217.5C62.4649 217.5 62.5848 217.5 62.7048 217.5C62.8248 217.5 62.9449 217.5 63.0652 217.5C63.1855 217.5 63.3059 217.5 63.4265 217.5C63.5471 217.5 63.6678 217.5 63.7886 217.5C63.9094 217.5 64.0304 217.5 64.1515 217.5C64.2726 217.5 64.3938 217.5 64.5152 217.5C64.6366 217.5 64.7581 217.5 64.8797 217.5C65.0014 217.5 65.1231 217.5 65.245 217.5C65.3669 217.5 65.489 217.5 65.6111 217.5C65.7333 217.5 65.8556 217.5 65.978 217.5C66.1004 217.5 66.223 217.5 66.3457 217.5C66.4683 217.5 66.5911 217.5 66.7141 217.5C66.837 217.5 66.9601 217.5 67.0832 217.5C67.2064 217.5 67.3297 217.5 67.4532 217.5C67.5766 217.5 67.7001 217.5 67.8238 217.5C67.9475 217.5 68.0713 217.5 68.1952 217.5C68.3192 217.5 68.4432 217.5 68.5674 217.5C68.6915 217.5 68.8158 217.5 68.9402 217.5C69.0646 217.5 69.1892 217.5 69.3138 217.5C69.4385 217.5 69.5632 217.5 69.6881 217.5C69.813 217.5 69.938 217.5 70.0631 217.5C70.1882 217.5 70.3134 217.5 70.4388 217.5C70.5641 217.5 70.6896 217.5 70.8152 217.5C70.9407 217.5 71.0664 217.5 71.1922 217.5C71.318 217.5 71.4439 217.5 71.5699 217.5C71.696 217.5 71.8221 217.5 71.9484 217.5C72.0746 217.5 72.201 217.5 72.3274 217.5C72.4539 217.5 72.5805 217.5 72.7071 217.5C72.8338 217.5 72.9606 217.5 73.0875 217.5C73.2144 217.5 73.3414 217.5 73.4685 217.5C73.5956 217.5 73.7228 217.5 73.8502 217.5C73.9775 217.5 74.1049 217.5 74.2324 217.5C74.36 217.5 74.4876 217.5 74.6153 217.5C74.7431 217.5 74.8709 217.5 74.9988 217.5C75.1268 217.5 75.2548 217.5 75.383 217.5C75.5111 217.5 75.6393 217.5 75.7677 217.5C75.896 217.5 76.0244 217.5 76.153 217.5C76.2815 217.5 76.4101 217.5 76.5389 217.5C76.6676 217.5 76.7964 217.5 76.9253 217.5C77.0543 217.5 77.1833 217.5 77.3124 217.5C77.4415 217.5 77.5707 217.5 77.7 217.5C77.8293 217.5 77.9587 217.5 78.0882 217.5C78.2177 217.5 78.3472 217.5 78.4769 217.5C78.6066 217.5 78.7363 217.5 78.8662 217.5C78.996 217.5 79.1259 217.5 79.256 217.5C79.386 217.5 79.5161 217.5 79.6463 217.5C79.7765 217.5 79.9068 217.5 80.0371 217.5C80.1675 217.5 80.298 217.5 80.4285 217.5C80.5591 217.5 80.6897 217.5 80.8204 217.5C80.9511 217.5 81.0819 217.5 81.2128 217.5C81.3437 217.5 81.4746 217.5 81.6057 217.5C81.7367 217.5 81.8678 217.5 81.9991 217.5C82.1303 217.5 82.2615 217.5 82.3929 217.5C82.5243 217.5 82.6557 217.5 82.7872 217.5C82.9188 217.5 83.0504 217.5 83.182 217.5C83.3137 217.5 83.4455 217.5 83.5773 217.5C83.7091 217.5 83.841 217.5 83.973 217.5C84.105 217.5 84.2371 217.5 84.3692 217.5C84.5013 217.5 84.6335 217.5 84.7658 217.5C84.8981 217.5 85.0304 217.5 85.1628 217.5C85.2953 217.5 85.4277 217.5 85.5603 217.5C85.6929 217.5 85.8255 217.5 85.9582 217.5C86.0909 217.5 86.2237 217.5 86.3565 217.5C86.4893 217.5 86.6222 217.5 86.7552 217.5C86.8882 217.5 87.0212 217.5 87.1543 217.5C87.2874 217.5 87.4206 217.5 87.5538 217.5C87.687 217.5 87.8203 217.5 87.9537 217.5C88.0871 217.5 88.2205 217.5 88.354 217.5C88.4875 217.5 88.621 217.5 88.7546 217.5C88.8882 217.5 89.0219 217.5 89.1556 217.5C89.2893 217.5 89.4231 217.5 89.557 217.5C89.6908 217.5 89.8247 217.5 89.9587 217.5C90.0926 217.5 90.2267 217.5 90.3607 217.5C90.4948 217.5 90.629 217.5 90.7631 217.5C90.8973 217.5 91.0316 217.5 91.1659 217.5C91.3002 217.5 91.4345 217.5 91.5689 217.5C91.7033 217.5 91.8378 217.5 91.9723 217.5C92.1068 217.5 92.2413 217.5 92.376 217.5C92.5106 217.5 92.6452 217.5 92.7799 217.5C92.9146 217.5 93.0494 217.5 93.1842 217.5C93.319 217.5 93.4539 217.5 93.5888 217.5C93.7237 217.5 93.8586 217.5 93.9936 217.5C94.1286 217.5 94.2637 217.5 94.3987 217.5C94.5338 217.5 94.669 217.5 94.8041 217.5C94.9393 217.5 95.0745 217.5 95.2098 217.5C95.3451 217.5 95.4804 217.5 95.6157 217.5C95.751 217.5 95.8864 217.5 96.0219 217.5C96.1573 217.5 96.2928 217.5 96.4283 217.5C96.5638 217.5 96.6993 217.5 96.8349 217.5C96.9705 217.5 97.1061 217.5 97.2417 217.5C97.3774 217.5 97.5131 217.5 97.6488 217.5C97.7846 217.5 97.9203 217.5 98.0561 217.5C98.1919 217.5 98.3277 217.5 98.4636 217.5C98.5995 217.5 98.7354 217.5 98.8713 217.5C99.0072 217.5 99.1432 217.5 99.2792 217.5C99.4152 217.5 99.5512 217.5 99.6873 217.5C99.8233 217.5 99.9594 217.5 100.096 217.5C100.232 217.5 100.368 217.5 100.504 217.5C100.64 217.5 100.776 217.5 100.913 217.5C101.049 217.5 101.185 217.5 101.321 217.5C101.458 217.5 101.594 217.5 101.73 217.5C101.867 217.5 102.003 217.5 102.139 217.5C102.276 217.5 102.412 217.5 102.548 217.5C102.685 217.5 102.821 217.5 102.958 217.5C103.094 217.5 103.231 217.5 103.367 217.5C103.504 217.5 103.64 217.5 103.777 217.5C103.913 217.5 104.05 217.5 104.186 217.5C104.323 217.5 104.46 217.5 104.596 217.5C104.733 217.5 104.869 217.5 105.006 217.5C105.143 217.5 105.279 217.5 105.416 217.5C105.553 217.5 105.689 217.5 105.826 217.5C105.963 217.5 106.099 217.5 106.236 217.5C106.373 217.5 106.51 217.5 106.646 217.5C106.783 217.5 106.92 217.5 107.057 217.5C107.193 217.5 107.33 217.5 107.467 217.5C107.604 217.5 107.74 217.5 107.877 217.5C108.014 217.5 108.151 217.5 108.288 217.5C108.424 217.5 108.561 217.5 108.698 217.5C108.835 217.5 108.972 217.5 109.108 217.5C109.245 217.5 109.382 217.5 109.519 217.5C109.656 217.5 109.793 217.5 109.929 217.5C110.066 217.5 110.203 217.5 110.34 217.5C110.477 217.5 110.614 217.5 110.75 217.5C110.887 217.5 111.024 217.5 111.161 217.5C111.298 217.5 111.434 217.5 111.571 217.5C111.708 217.5 111.845 217.5 111.982 217.5C112.119 217.5 112.255 217.5 112.392 217.5C112.529 217.5 112.666 217.5 112.802 217.5C112.939 217.5 113.076 217.5 113.213 217.5C113.35 217.5 113.486 217.5 113.623 217.5C113.76 217.5 113.897 217.5 114.033 217.5C114.17 217.5 114.307 217.5 114.444 217.5C114.58 217.5 114.717 217.5 114.854 217.5C114.99 217.5 115.127 217.5 115.264 217.5C115.4 217.5 115.537 217.5 115.674 217.5C115.81 217.5 115.947 217.5 116.083 217.5C116.22 217.5 116.357 217.5 116.493 217.5C116.63 217.5 116.766 217.5 116.903 217.5C117.039 217.5 117.176 217.5 117.312 217.5C117.449 217.5 117.585 217.5 117.722 217.5C117.858 217.5 117.995 217.5 118.131 217.5C118.267 217.5 118.404 217.5 118.54 217.5C118.677 217.5 118.813 217.5 118.949 217.5C119.086 217.5 119.222 217.5 119.358 217.5C119.494 217.5 119.631 217.5 119.767 217.5C119.903 217.5 120.039 217.5 120.175 217.5C120.312 217.5 120.448 217.5 120.584 217.5C120.72 217.5 120.856 217.5 120.992 217.5C121.128 217.5 121.264 217.5 121.4 217.5C121.536 217.5 121.672 217.5 121.808 217.5C121.944 217.5 122.08 217.5 122.216 217.5C122.351 217.5 122.487 217.5 122.623 217.5C122.759 217.5 122.895 217.5 123.03 217.5C123.166 217.5 123.302 217.5 123.437 217.5C123.573 217.5 123.709 217.5 123.844 217.5C123.98 217.5 124.115 217.5 124.251 217.5C124.386 217.5 124.522 217.5 124.657 217.5C124.793 217.5 124.928 217.5 125.063 217.5C125.199 217.5 125.334 217.5 125.469 217.5C125.604 217.5 125.74 217.5 125.875 217.5C126.01 217.5 126.145 217.5 126.28 217.5C126.415 217.5 126.55 217.5 126.685 217.5C126.82 217.5 126.955 217.5 127.09 217.5C127.225 217.5 127.36 217.5 127.494 217.5C127.629 217.5 127.764 217.5 127.899 217.5C128.033 217.5 128.168 217.5 128.303 217.5C128.437 217.5 128.572 217.5 128.706 217.5C128.841 217.5 128.975 217.5 129.11 217.5C129.244 217.5 129.378 217.5 129.513 217.5C129.647 217.5 129.781 217.5 129.915 217.5C130.049 217.5 130.183 217.5 130.318 217.5C130.452 217.5 130.586 217.5 130.72 217.5C130.853 217.5 130.987 217.5 131.121 217.5C131.255 217.5 131.389 217.5 131.522 217.5C131.656 217.5 131.79 217.5 131.923 217.5C132.057 217.5 132.191 217.5 132.324 217.5C132.457 217.5 132.591 217.5 132.724 217.5C132.858 217.5 132.991 217.5 133.124 217.5C133.257 217.5 133.39 217.5 133.523 217.5C133.656 217.5 133.79 217.5 133.922 217.5C134.055 217.5 134.188 217.5 134.321 217.5C134.454 217.5 134.587 217.5 134.719 217.5C134.852 217.5 134.985 217.5 135.117 217.5C135.25 217.5 135.382 217.5 135.515 217.5C135.647 217.5 135.779 217.5 135.911 217.5C136.044 217.5 136.176 217.5 136.308 217.5C136.44 217.5 136.572 217.5 136.704 217.5C136.836 217.5 136.968 217.5 137.1 217.5C137.232 217.5 137.363 217.5 137.495 217.5C137.627 217.5 137.758 217.5 137.89 217.5C138.021 217.5 138.153 217.5 138.284 217.5C138.415 217.5 138.546 217.5 138.678 217.5C138.809 217.5 138.94 217.5 139.071 217.5C139.202 217.5 139.333 217.5 139.464 217.5C139.595 217.5 139.725 217.5 139.856 217.5C139.987 217.5 140.117 217.5 140.248 217.5C140.378 217.5 140.509 217.5 140.639 217.5C140.769 217.5 140.9 217.5 141.03 217.5C141.16 217.5 141.29 217.5 141.42 217.5C141.55 217.5 141.68 217.5 141.81 217.5C141.94 217.5 142.069 217.5 142.199 217.5C142.329 217.5 142.458 217.5 142.588 217.5C142.717 217.5 142.846 217.5 142.976 217.5C143.105 217.5 143.234 217.5 143.363 217.5C143.492 217.5 143.621 217.5 143.75 217.5C143.879 217.5 144.008 217.5 144.137 217.5C144.265 217.5 144.394 217.5 144.522 217.5C144.651 217.5 144.779 217.5 144.908 217.5C145.036 217.5 145.164 217.5 145.292 217.5C145.42 217.5 145.548 217.5 145.676 217.5C145.804 217.5 145.932 217.5 146.06 217.5C146.187 217.5 146.315 217.5 146.442 217.5C146.57 217.5 146.697 217.5 146.825 217.5C146.952 217.5 147.079 217.5 147.206 217.5C147.333 217.5 147.46 217.5 147.587 217.5C147.714 217.5 147.841 217.5 147.967 217.5C148.094 217.5 148.22 217.5 148.347 217.5C148.473 217.5 148.6 217.5 148.726 217.5C148.852 217.5 148.978 217.5 149.104 217.5C149.23 217.5 149.356 217.5 149.482 217.5C149.607 217.5 149.733 217.5 149.859 217.5C149.984 217.5 150.11 217.5 150.235 217.5C150.36 217.5 150.485 217.5 150.61 217.5C150.735 217.5 150.86 217.5 150.985 217.5C151.11 217.5 151.235 217.5 151.359 217.5C151.484 217.5 151.609 217.5 151.733 217.5C151.857 217.5 151.982 217.5 152.106 217.5C152.23 217.5 152.354 217.5 152.478 217.5C152.602 217.5 152.725 217.5 152.849 217.5C152.973 217.5 153.096 217.5 153.219 217.5C153.343 217.5 153.466 217.5 153.589 217.5C153.712 217.5 153.835 217.5 153.958 217.5C154.081 217.5 154.204 217.5 154.327 217.5C154.449 217.5 154.572 217.5 154.694 217.5C154.816 217.5 154.939 217.5 155.061 217.5C155.183 217.5 155.305 217.5 155.427 217.5C155.549 217.5 155.67 217.5 155.792 217.5C155.914 217.5 156.035 217.5 156.156 217.5C156.278 217.5 156.399 217.5 156.52 217.5C156.641 217.5 156.762 217.5 156.883 217.5C157.003 217.5 157.124 217.5 157.245 217.5C157.365 217.5 157.485 217.5 157.606 217.5C157.726 217.5 157.846 217.5 157.966 217.5C158.086 217.5 158.206 217.5 158.325 217.5C158.445 217.5 158.565 217.5 158.684 217.5C158.804 217.5 158.923 217.5 159.042 217.5C159.161 217.5 159.28 217.5 159.399 217.5C159.518 217.5 159.636 217.5 159.755 217.5C159.873 217.5 159.992 217.5 160.11 217.5C160.228 217.5 160.346 217.5 160.464 217.5C160.582 217.5 160.7 217.5 160.818 217.5C160.935 217.5 161.053 217.5 161.17 217.5C161.288 217.5 161.405 217.5 161.522 217.5C161.639 217.5 161.756 217.5 161.873 217.5C161.989 217.5 162.106 217.5 162.222 217.5C162.339 217.5 162.455 217.5 162.571 217.5C162.688 217.5 162.803 217.5 162.919 217.5C163.035 217.5 163.151 217.5 163.266 217.5C163.382 217.5 163.497 217.5 163.612 217.5C163.728 217.5 163.843 217.5 163.958 217.5C164.073 217.5 164.187 217.5 164.302 217.5C164.416 217.5 164.531 217.5 164.645 217.5C164.759 217.5 164.873 217.5 164.987 217.5C165.101 217.5 165.215 217.5 165.329 217.5C165.442 217.5 165.556 217.5 165.669 217.5C165.782 217.5 165.895 217.5 166.008 217.5C166.121 217.5 166.234 217.5 166.347 217.5C166.459 217.5 166.572 217.5 166.684 217.5C166.796 217.5 166.908 217.5 167.02 217.5C167.132 217.5 167.244 217.5 167.356 217.5C167.467 217.5 167.579 217.5 167.69 217.5C167.801 217.5 167.912 217.5 168.023 217.5C168.134 217.5 168.245 217.5 168.355 217.5C168.466 217.5 168.576 217.5 168.687 217.5C168.797 217.5 168.907 217.5 169.017 217.5C169.127 217.5 169.236 217.5 169.346 217.5C169.455 217.5 169.565 217.5 169.674 217.5C169.783 217.5 169.892 217.5 170.001 217.5C170.109 217.5 170.218 217.5 170.327 217.5C170.435 217.5 170.543 217.5 170.651 217.5C170.759 217.5 170.867 217.5 170.975 217.5C171.083 217.5 171.19 217.5 171.298 217.5C171.405 217.5 171.512 217.5 171.619 217.5C171.726 217.5 171.833 217.5 171.939 217.5C172.046 217.5 172.152 217.5 172.259 217.5C172.365 217.5 172.471 217.5 172.577 217.5C172.683 217.5 172.788 217.5 172.894 217.5C172.999 217.5 173.105 217.5 173.21 217.5C173.315 217.5 173.42 217.5 173.524 217.5C173.629 217.5 173.734 217.5 173.838 217.5C173.942 217.5 174.046 217.5 174.15 217.5C174.254 217.5 174.358 217.5 174.462 217.5C174.565 217.5 174.669 217.5 174.772 217.5C174.875 217.5 174.978 217.5 175.081 217.5C175.183 217.5 175.286 217.5 175.388 217.5C175.491 217.5 175.593 217.5 175.695 217.5C175.797 217.5 175.898 217.5 176 217.5V211.5C175.898 211.5 175.797 211.5 175.695 211.5C175.593 211.5 175.491 211.5 175.388 211.5C175.286 211.5 175.183 211.5 175.081 211.5C174.978 211.5 174.875 211.5 174.772 211.5C174.669 211.5 174.565 211.5 174.462 211.5C174.358 211.5 174.254 211.5 174.15 211.5C174.046 211.5 173.942 211.5 173.838 211.5C173.734 211.5 173.629 211.5 173.524 211.5C173.42 211.5 173.315 211.5 173.21 211.5C173.105 211.5 172.999 211.5 172.894 211.5C172.788 211.5 172.683 211.5 172.577 211.5C172.471 211.5 172.365 211.5 172.259 211.5C172.152 211.5 172.046 211.5 171.939 211.5C171.833 211.5 171.726 211.5 171.619 211.5C171.512 211.5 171.405 211.5 171.298 211.5C171.19 211.5 171.083 211.5 170.975 211.5C170.867 211.5 170.759 211.5 170.651 211.5C170.543 211.5 170.435 211.5 170.327 211.5C170.218 211.5 170.109 211.5 170.001 211.5C169.892 211.5 169.783 211.5 169.674 211.5C169.565 211.5 169.455 211.5 169.346 211.5C169.236 211.5 169.127 211.5 169.017 211.5C168.907 211.5 168.797 211.5 168.687 211.5C168.576 211.5 168.466 211.5 168.355 211.5C168.245 211.5 168.134 211.5 168.023 211.5C167.912 211.5 167.801 211.5 167.69 211.5C167.579 211.5 167.467 211.5 167.356 211.5C167.244 211.5 167.132 211.5 167.02 211.5C166.908 211.5 166.796 211.5 166.684 211.5C166.572 211.5 166.459 211.5 166.347 211.5C166.234 211.5 166.121 211.5 166.008 211.5C165.895 211.5 165.782 211.5 165.669 211.5C165.556 211.5 165.442 211.5 165.329 211.5C165.215 211.5 165.101 211.5 164.987 211.5C164.873 211.5 164.759 211.5 164.645 211.5C164.531 211.5 164.416 211.5 164.302 211.5C164.187 211.5 164.073 211.5 163.958 211.5C163.843 211.5 163.728 211.5 163.612 211.5C163.497 211.5 163.382 211.5 163.266 211.5C163.151 211.5 163.035 211.5 162.919 211.5C162.803 211.5 162.688 211.5 162.571 211.5C162.455 211.5 162.339 211.5 162.222 211.5C162.106 211.5 161.989 211.5 161.873 211.5C161.756 211.5 161.639 211.5 161.522 211.5C161.405 211.5 161.288 211.5 161.17 211.5C161.053 211.5 160.935 211.5 160.818 211.5C160.7 211.5 160.582 211.5 160.464 211.5C160.346 211.5 160.228 211.5 160.11 211.5C159.992 211.5 159.873 211.5 159.755 211.5C159.636 211.5 159.518 211.5 159.399 211.5C159.28 211.5 159.161 211.5 159.042 211.5C158.923 211.5 158.804 211.5 158.684 211.5C158.565 211.5 158.445 211.5 158.325 211.5C158.206 211.5 158.086 211.5 157.966 211.5C157.846 211.5 157.726 211.5 157.606 211.5C157.485 211.5 157.365 211.5 157.245 211.5C157.124 211.5 157.003 211.5 156.883 211.5C156.762 211.5 156.641 211.5 156.52 211.5C156.399 211.5 156.278 211.5 156.156 211.5C156.035 211.5 155.914 211.5 155.792 211.5C155.67 211.5 155.549 211.5 155.427 211.5C155.305 211.5 155.183 211.5 155.061 211.5C154.939 211.5 154.816 211.5 154.694 211.5C154.572 211.5 154.449 211.5 154.327 211.5C154.204 211.5 154.081 211.5 153.958 211.5C153.835 211.5 153.712 211.5 153.589 211.5C153.466 211.5 153.343 211.5 153.219 211.5C153.096 211.5 152.973 211.5 152.849 211.5C152.725 211.5 152.602 211.5 152.478 211.5C152.354 211.5 152.23 211.5 152.106 211.5C151.982 211.5 151.857 211.5 151.733 211.5C151.609 211.5 151.484 211.5 151.359 211.5C151.235 211.5 151.11 211.5 150.985 211.5C150.86 211.5 150.735 211.5 150.61 211.5C150.485 211.5 150.36 211.5 150.235 211.5C150.11 211.5 149.984 211.5 149.859 211.5C149.733 211.5 149.607 211.5 149.482 211.5C149.356 211.5 149.23 211.5 149.104 211.5C148.978 211.5 148.852 211.5 148.726 211.5C148.6 211.5 148.473 211.5 148.347 211.5C148.22 211.5 148.094 211.5 147.967 211.5C147.841 211.5 147.714 211.5 147.587 211.5C147.46 211.5 147.333 211.5 147.206 211.5C147.079 211.5 146.952 211.5 146.825 211.5C146.697 211.5 146.57 211.5 146.442 211.5C146.315 211.5 146.187 211.5 146.06 211.5C145.932 211.5 145.804 211.5 145.676 211.5C145.548 211.5 145.42 211.5 145.292 211.5C145.164 211.5 145.036 211.5 144.908 211.5C144.779 211.5 144.651 211.5 144.522 211.5C144.394 211.5 144.265 211.5 144.137 211.5C144.008 211.5 143.879 211.5 143.75 211.5C143.621 211.5 143.492 211.5 143.363 211.5C143.234 211.5 143.105 211.5 142.976 211.5C142.846 211.5 142.717 211.5 142.588 211.5C142.458 211.5 142.329 211.5 142.199 211.5C142.069 211.5 141.94 211.5 141.81 211.5C141.68 211.5 141.55 211.5 141.42 211.5C141.29 211.5 141.16 211.5 141.03 211.5C140.9 211.5 140.769 211.5 140.639 211.5C140.509 211.5 140.378 211.5 140.248 211.5C140.117 211.5 139.987 211.5 139.856 211.5C139.725 211.5 139.595 211.5 139.464 211.5C139.333 211.5 139.202 211.5 139.071 211.5C138.94 211.5 138.809 211.5 138.678 211.5C138.546 211.5 138.415 211.5 138.284 211.5C138.153 211.5 138.021 211.5 137.89 211.5C137.758 211.5 137.627 211.5 137.495 211.5C137.363 211.5 137.232 211.5 137.1 211.5C136.968 211.5 136.836 211.5 136.704 211.5C136.572 211.5 136.44 211.5 136.308 211.5C136.176 211.5 136.044 211.5 135.911 211.5C135.779 211.5 135.647 211.5 135.515 211.5C135.382 211.5 135.25 211.5 135.117 211.5C134.985 211.5 134.852 211.5 134.719 211.5C134.587 211.5 134.454 211.5 134.321 211.5C134.188 211.5 134.055 211.5 133.922 211.5C133.79 211.5 133.656 211.5 133.523 211.5C133.39 211.5 133.257 211.5 133.124 211.5C132.991 211.5 132.858 211.5 132.724 211.5C132.591 211.5 132.457 211.5 132.324 211.5C132.191 211.5 132.057 211.5 131.923 211.5C131.79 211.5 131.656 211.5 131.522 211.5C131.389 211.5 131.255 211.5 131.121 211.5C130.987 211.5 130.853 211.5 130.72 211.5C130.586 211.5 130.452 211.5 130.318 211.5C130.183 211.5 130.049 211.5 129.915 211.5C129.781 211.5 129.647 211.5 129.513 211.5C129.378 211.5 129.244 211.5 129.11 211.5C128.975 211.5 128.841 211.5 128.706 211.5C128.572 211.5 128.437 211.5 128.303 211.5C128.168 211.5 128.033 211.5 127.899 211.5C127.764 211.5 127.629 211.5 127.494 211.5C127.36 211.5 127.225 211.5 127.09 211.5C126.955 211.5 126.82 211.5 126.685 211.5C126.55 211.5 126.415 211.5 126.28 211.5C126.145 211.5 126.01 211.5 125.875 211.5C125.74 211.5 125.604 211.5 125.469 211.5C125.334 211.5 125.199 211.5 125.063 211.5C124.928 211.5 124.793 211.5 124.657 211.5C124.522 211.5 124.386 211.5 124.251 211.5C124.115 211.5 123.98 211.5 123.844 211.5C123.709 211.5 123.573 211.5 123.437 211.5C123.302 211.5 123.166 211.5 123.03 211.5C122.895 211.5 122.759 211.5 122.623 211.5C122.487 211.5 122.351 211.5 122.216 211.5C122.08 211.5 121.944 211.5 121.808 211.5C121.672 211.5 121.536 211.5 121.4 211.5C121.264 211.5 121.128 211.5 120.992 211.5C120.856 211.5 120.72 211.5 120.584 211.5C120.448 211.5 120.312 211.5 120.175 211.5C120.039 211.5 119.903 211.5 119.767 211.5C119.631 211.5 119.494 211.5 119.358 211.5C119.222 211.5 119.086 211.5 118.949 211.5C118.813 211.5 118.677 211.5 118.54 211.5C118.404 211.5 118.267 211.5 118.131 211.5C117.995 211.5 117.858 211.5 117.722 211.5C117.585 211.5 117.449 211.5 117.312 211.5C117.176 211.5 117.039 211.5 116.903 211.5C116.766 211.5 116.63 211.5 116.493 211.5C116.357 211.5 116.22 211.5 116.083 211.5C115.947 211.5 115.81 211.5 115.674 211.5C115.537 211.5 115.4 211.5 115.264 211.5C115.127 211.5 114.99 211.5 114.854 211.5C114.717 211.5 114.58 211.5 114.444 211.5C114.307 211.5 114.17 211.5 114.033 211.5C113.897 211.5 113.76 211.5 113.623 211.5C113.486 211.5 113.35 211.5 113.213 211.5C113.076 211.5 112.939 211.5 112.802 211.5C112.666 211.5 112.529 211.5 112.392 211.5C112.255 211.5 112.119 211.5 111.982 211.5C111.845 211.5 111.708 211.5 111.571 211.5C111.434 211.5 111.298 211.5 111.161 211.5C111.024 211.5 110.887 211.5 110.75 211.5C110.614 211.5 110.477 211.5 110.34 211.5C110.203 211.5 110.066 211.5 109.929 211.5C109.793 211.5 109.656 211.5 109.519 211.5C109.382 211.5 109.245 211.5 109.108 211.5C108.972 211.5 108.835 211.5 108.698 211.5C108.561 211.5 108.424 211.5 108.288 211.5C108.151 211.5 108.014 211.5 107.877 211.5C107.74 211.5 107.604 211.5 107.467 211.5C107.33 211.5 107.193 211.5 107.057 211.5C106.92 211.5 106.783 211.5 106.646 211.5C106.51 211.5 106.373 211.5 106.236 211.5C106.099 211.5 105.963 211.5 105.826 211.5C105.689 211.5 105.553 211.5 105.416 211.5C105.279 211.5 105.143 211.5 105.006 211.5C104.869 211.5 104.733 211.5 104.596 211.5C104.46 211.5 104.323 211.5 104.186 211.5C104.05 211.5 103.913 211.5 103.777 211.5C103.64 211.5 103.504 211.5 103.367 211.5C103.231 211.5 103.094 211.5 102.958 211.5C102.821 211.5 102.685 211.5 102.548 211.5C102.412 211.5 102.276 211.5 102.139 211.5C102.003 211.5 101.867 211.5 101.73 211.5C101.594 211.5 101.458 211.5 101.321 211.5C101.185 211.5 101.049 211.5 100.913 211.5C100.776 211.5 100.64 211.5 100.504 211.5C100.368 211.5 100.232 211.5 100.096 211.5C99.9594 211.5 99.8233 211.5 99.6873 211.5C99.5512 211.5 99.4152 211.5 99.2792 211.5C99.1432 211.5 99.0072 211.5 98.8713 211.5C98.7354 211.5 98.5995 211.5 98.4636 211.5C98.3277 211.5 98.1919 211.5 98.0561 211.5C97.9203 211.5 97.7846 211.5 97.6488 211.5C97.5131 211.5 97.3774 211.5 97.2417 211.5C97.1061 211.5 96.9705 211.5 96.8349 211.5C96.6993 211.5 96.5638 211.5 96.4283 211.5C96.2928 211.5 96.1573 211.5 96.0219 211.5C95.8864 211.5 95.751 211.5 95.6157 211.5C95.4804 211.5 95.3451 211.5 95.2098 211.5C95.0745 211.5 94.9393 211.5 94.8041 211.5C94.669 211.5 94.5338 211.5 94.3987 211.5C94.2637 211.5 94.1286 211.5 93.9936 211.5C93.8586 211.5 93.7237 211.5 93.5888 211.5C93.4539 211.5 93.319 211.5 93.1842 211.5C93.0494 211.5 92.9146 211.5 92.7799 211.5C92.6452 211.5 92.5106 211.5 92.376 211.5C92.2413 211.5 92.1068 211.5 91.9723 211.5C91.8378 211.5 91.7033 211.5 91.5689 211.5C91.4345 211.5 91.3002 211.5 91.1659 211.5C91.0316 211.5 90.8973 211.5 90.7631 211.5C90.629 211.5 90.4948 211.5 90.3607 211.5C90.2267 211.5 90.0926 211.5 89.9587 211.5C89.8247 211.5 89.6908 211.5 89.557 211.5C89.4231 211.5 89.2893 211.5 89.1556 211.5C89.0219 211.5 88.8882 211.5 88.7546 211.5C88.621 211.5 88.4875 211.5 88.354 211.5C88.2205 211.5 88.0871 211.5 87.9537 211.5C87.8203 211.5 87.687 211.5 87.5538 211.5C87.4206 211.5 87.2874 211.5 87.1543 211.5C87.0212 211.5 86.8882 211.5 86.7552 211.5C86.6222 211.5 86.4893 211.5 86.3565 211.5C86.2237 211.5 86.0909 211.5 85.9582 211.5C85.8255 211.5 85.6929 211.5 85.5603 211.5C85.4277 211.5 85.2953 211.5 85.1628 211.5C85.0304 211.5 84.8981 211.5 84.7658 211.5C84.6335 211.5 84.5013 211.5 84.3692 211.5C84.2371 211.5 84.105 211.5 83.973 211.5C83.841 211.5 83.7091 211.5 83.5773 211.5C83.4455 211.5 83.3137 211.5 83.182 211.5C83.0504 211.5 82.9188 211.5 82.7872 211.5C82.6557 211.5 82.5243 211.5 82.3929 211.5C82.2615 211.5 82.1303 211.5 81.9991 211.5C81.8678 211.5 81.7367 211.5 81.6057 211.5C81.4746 211.5 81.3437 211.5 81.2128 211.5C81.0819 211.5 80.9511 211.5 80.8204 211.5C80.6897 211.5 80.5591 211.5 80.4285 211.5C80.298 211.5 80.1675 211.5 80.0371 211.5C79.9068 211.5 79.7765 211.5 79.6463 211.5C79.5161 211.5 79.386 211.5 79.256 211.5C79.1259 211.5 78.996 211.5 78.8662 211.5C78.7363 211.5 78.6066 211.5 78.4769 211.5C78.3472 211.5 78.2177 211.5 78.0882 211.5C77.9587 211.5 77.8293 211.5 77.7 211.5C77.5707 211.5 77.4415 211.5 77.3124 211.5C77.1833 211.5 77.0543 211.5 76.9253 211.5C76.7964 211.5 76.6676 211.5 76.5389 211.5C76.4101 211.5 76.2815 211.5 76.153 211.5C76.0244 211.5 75.896 211.5 75.7677 211.5C75.6393 211.5 75.5111 211.5 75.383 211.5C75.2548 211.5 75.1268 211.5 74.9988 211.5C74.8709 211.5 74.7431 211.5 74.6153 211.5C74.4876 211.5 74.36 211.5 74.2324 211.5C74.1049 211.5 73.9775 211.5 73.8502 211.5C73.7228 211.5 73.5956 211.5 73.4685 211.5C73.3414 211.5 73.2144 211.5 73.0875 211.5C72.9606 211.5 72.8338 211.5 72.7071 211.5C72.5805 211.5 72.4539 211.5 72.3274 211.5C72.201 211.5 72.0746 211.5 71.9484 211.5C71.8221 211.5 71.696 211.5 71.5699 211.5C71.4439 211.5 71.318 211.5 71.1922 211.5C71.0664 211.5 70.9407 211.5 70.8152 211.5C70.6896 211.5 70.5641 211.5 70.4388 211.5C70.3134 211.5 70.1882 211.5 70.0631 211.5C69.938 211.5 69.813 211.5 69.6881 211.5C69.5632 211.5 69.4385 211.5 69.3138 211.5C69.1892 211.5 69.0646 211.5 68.9402 211.5C68.8158 211.5 68.6915 211.5 68.5674 211.5C68.4432 211.5 68.3192 211.5 68.1952 211.5C68.0713 211.5 67.9475 211.5 67.8238 211.5C67.7001 211.5 67.5766 211.5 67.4532 211.5C67.3297 211.5 67.2064 211.5 67.0832 211.5C66.9601 211.5 66.837 211.5 66.7141 211.5C66.5911 211.5 66.4683 211.5 66.3457 211.5C66.223 211.5 66.1004 211.5 65.978 211.5C65.8556 211.5 65.7333 211.5 65.6111 211.5C65.489 211.5 65.3669 211.5 65.245 211.5C65.1231 211.5 65.0014 211.5 64.8797 211.5C64.7581 211.5 64.6366 211.5 64.5152 211.5C64.3938 211.5 64.2726 211.5 64.1515 211.5C64.0304 211.5 63.9094 211.5 63.7886 211.5C63.6678 211.5 63.5471 211.5 63.4265 211.5C63.3059 211.5 63.1855 211.5 63.0652 211.5C62.9449 211.5 62.8248 211.5 62.7048 211.5C62.5848 211.5 62.4649 211.5 62.3452 211.5C62.2254 211.5 62.1058 211.5 61.9864 211.5C61.8669 211.5 61.7476 211.5 61.6285 211.5C61.5093 211.5 61.3903 211.5 61.2714 211.5C61.1525 211.5 61.0338 211.5 60.9152 211.5C60.7966 211.5 60.6782 211.5 60.5599 211.5C60.4416 211.5 60.3234 211.5 60.2054 211.5C60.0874 211.5 59.9695 211.5 59.8518 211.5C59.7341 211.5 59.6166 211.5 59.4991 211.5C59.3817 211.5 59.2645 211.5 59.1474 211.5C59.0302 211.5 58.9133 211.5 58.7965 211.5C58.6797 211.5 58.563 211.5 58.4465 211.5C58.33 211.5 58.2136 211.5 58.0974 211.5C57.9812 211.5 57.8652 211.5 57.7493 211.5C57.6334 211.5 57.5177 211.5 57.4021 211.5C57.2865 211.5 57.1711 211.5 57.0558 211.5C56.9406 211.5 56.8255 211.5 56.7105 211.5C56.5956 211.5 56.4808 211.5 56.3661 211.5C56.2515 211.5 56.137 211.5 56.0227 211.5C55.9084 211.5 55.7943 211.5 55.6803 211.5C55.5663 211.5 55.4525 211.5 55.3388 211.5C55.2252 211.5 55.1117 211.5 54.9983 211.5C54.885 211.5 54.7718 211.5 54.6588 211.5C54.5458 211.5 54.433 211.5 54.3203 211.5C54.2076 211.5 54.0951 211.5 53.9828 211.5C53.8705 211.5 53.7583 211.5 53.6463 211.5C53.5343 211.5 53.4225 211.5 53.3108 211.5C53.1991 211.5 53.0877 211.5 52.9763 211.5C52.865 211.5 52.7539 211.5 52.6429 211.5C52.5319 211.5 52.4211 211.5 52.3105 211.5C52.1999 211.5 52.0894 211.5 51.9791 211.5C51.8688 211.5 51.7587 211.5 51.6488 211.5C51.5389 211.5 51.4291 211.5 51.3195 211.5C51.21 211.5 51.1006 211.5 50.9913 211.5C50.8821 211.5 50.7731 211.5 50.6642 211.5C50.5554 211.5 50.4467 211.5 50.3382 211.5C50.2297 211.5 50.1213 211.5 50.0132 211.5C49.9051 211.5 49.7971 211.5 49.6893 211.5C49.5815 211.5 49.4739 211.5 49.3665 211.5C49.2591 211.5 49.1519 211.5 49.0448 211.5C48.9378 211.5 48.8309 211.5 48.7243 211.5C48.6176 211.5 48.5111 211.5 48.4048 211.5C48.2985 211.5 48.1924 211.5 48.0865 211.5C47.9806 211.5 47.8748 211.5 47.7693 211.5C47.6638 211.5 47.5584 211.5 47.4532 211.5C47.3481 211.5 47.2431 211.5 47.1383 211.5C47.0336 211.5 46.929 211.5 46.8246 211.5C46.7202 211.5 46.616 211.5 46.512 211.5C46.408 211.5 46.3042 211.5 46.2005 211.5C46.0969 211.5 45.9935 211.5 45.8903 211.5C45.787 211.5 45.684 211.5 45.5812 211.5C45.4784 211.5 45.3757 211.5 45.2733 211.5C45.1709 211.5 45.0686 211.5 44.9666 211.5C44.8646 211.5 44.7627 211.5 44.6611 211.5C44.5595 211.5 44.458 211.5 44.3568 211.5C44.2556 211.5 44.1545 211.5 44.0537 211.5C43.9529 211.5 43.8523 211.5 43.7519 211.5C43.6514 211.5 43.5512 211.5 43.4512 211.5C43.3512 211.5 43.2514 211.5 43.1518 211.5C43.0522 211.5 42.9528 211.5 42.8537 211.5C42.7545 211.5 42.6555 211.5 42.5568 211.5C42.458 211.5 42.3594 211.5 42.2611 211.5C42.1628 211.5 42.0646 211.5 41.9667 211.5C41.8688 211.5 41.7711 211.5 41.6736 211.5C41.5761 211.5 41.4788 211.5 41.3818 211.5C41.2847 211.5 41.1878 211.5 41.0912 211.5C40.9946 211.5 40.8981 211.5 40.8019 211.5C40.7057 211.5 40.6097 211.5 40.514 211.5C40.4182 211.5 40.3226 211.5 40.2273 211.5C40.1319 211.5 40.0368 211.5 39.9419 211.5C39.847 211.5 39.7523 211.5 39.6579 211.5C39.5634 211.5 39.4692 211.5 39.3752 211.5C39.2812 211.5 39.1874 211.5 39.0938 211.5C39.0002 211.5 38.9069 211.5 38.8137 211.5C38.7206 211.5 38.6277 211.5 38.535 211.5C38.4424 211.5 38.3499 211.5 38.2577 211.5C38.1655 211.5 38.0735 211.5 37.9817 211.5C37.8899 211.5 37.7984 211.5 37.7071 211.5C37.6158 211.5 37.5247 211.5 37.4338 211.5C37.343 211.5 37.2524 211.5 37.162 211.5C37.0716 211.5 36.9814 211.5 36.8915 211.5C36.8015 211.5 36.7119 211.5 36.6224 211.5C36.5329 211.5 36.4437 211.5 36.3547 211.5C36.2657 211.5 36.1769 211.5 36.0884 211.5C35.9999 211.5 35.9116 211.5 35.8235 211.5C35.7355 211.5 35.6477 211.5 35.5601 211.5C35.4725 211.5 35.3852 211.5 35.2981 211.5C35.211 211.5 35.1241 211.5 35.0375 211.5C34.9509 211.5 34.8645 211.5 34.7784 211.5C34.6922 211.5 34.6063 211.5 34.5207 211.5C34.435 211.5 34.3496 211.5 34.2644 211.5C34.1793 211.5 34.0943 211.5 34.0097 211.5C33.925 211.5 33.8405 211.5 33.7564 211.5C33.6722 211.5 33.5882 211.5 33.5045 211.5C33.4208 211.5 33.3374 211.5 33.2542 211.5C33.171 211.5 33.088 211.5 33.0053 211.5C32.9226 211.5 32.8402 211.5 32.758 211.5C32.6758 211.5 32.5938 211.5 32.5121 211.5C32.4304 211.5 32.349 211.5 32.2678 211.5C32.1866 211.5 32.1056 211.5 32.0249 211.5C31.9443 211.5 31.8638 211.5 31.7836 211.5C31.7035 211.5 31.6235 211.5 31.5439 211.5C31.4642 211.5 31.3848 211.5 31.3057 211.5C31.2265 211.5 31.1476 211.5 31.069 211.5C30.9903 211.5 30.912 211.5 30.8338 211.5C30.7557 211.5 30.6779 211.5 30.6003 211.5C30.5227 211.5 30.4453 211.5 30.3683 211.5C30.2912 211.5 30.2144 211.5 30.1378 211.5C30.0613 211.5 29.985 211.5 29.909 211.5C29.833 211.5 29.7572 211.5 29.6817 211.5C29.6062 211.5 29.531 211.5 29.456 211.5C29.3811 211.5 29.3064 211.5 29.232 211.5C29.1575 211.5 29.0834 211.5 29.0095 211.5C28.9356 211.5 28.862 211.5 28.7887 211.5C28.7153 211.5 28.6422 211.5 28.5694 211.5C28.4966 211.5 28.4241 211.5 28.3518 211.5C28.2796 211.5 28.2076 211.5 28.1359 211.5C28.0641 211.5 27.9927 211.5 27.9215 211.5C27.8504 211.5 27.7795 211.5 27.7089 211.5C27.6383 211.5 27.5679 211.5 27.4979 211.5C27.4278 211.5 27.358 211.5 27.2885 211.5C27.219 211.5 27.1498 211.5 27.0808 211.5C27.0119 211.5 26.9432 211.5 26.8748 211.5C26.8064 211.5 26.7383 211.5 26.6705 211.5C26.6027 211.5 26.5351 211.5 26.4678 211.5C26.4006 211.5 26.3336 211.5 26.2669 211.5C26.2002 211.5 26.1338 211.5 26.0677 211.5C26.0016 211.5 25.9357 211.5 25.8702 211.5C25.8046 211.5 25.7393 211.5 25.6744 211.5C25.6094 211.5 25.5447 211.5 25.4803 211.5C25.4159 211.5 25.3518 211.5 25.2879 211.5C25.2241 211.5 25.1606 211.5 25.0973 211.5C25.0341 211.5 24.9711 211.5 24.9085 211.5C24.8458 211.5 24.7834 211.5 24.7214 211.5C24.6593 211.5 24.5975 211.5 24.536 211.5C24.4745 211.5 24.4133 211.5 24.3524 211.5C24.2915 211.5 24.2309 211.5 24.1706 211.5C24.1103 211.5 24.0503 211.5 23.9906 211.5C23.9309 211.5 23.8714 211.5 23.8123 211.5C23.7532 211.5 23.6944 211.5 23.6359 211.5C23.5774 211.5 23.5192 211.5 23.4612 211.5C23.4033 211.5 23.3457 211.5 23.2884 211.5C23.2311 211.5 23.1741 211.5 23.1174 211.5C23.0607 211.5 23.0043 211.5 22.9482 211.5C22.8921 211.5 22.8363 211.5 22.7808 211.5C22.7253 211.5 22.6701 211.5 22.6152 211.5C22.5604 211.5 22.5058 211.5 22.4516 211.5C22.3973 211.5 22.3433 211.5 22.2897 211.5C22.2361 211.5 22.1827 211.5 22.1297 211.5C22.0767 211.5 22.024 211.5 21.9716 211.5C21.9192 211.5 21.8671 211.5 21.8153 211.5C21.7635 211.5 21.7121 211.5 21.6609 211.5C21.6098 211.5 21.559 211.5 21.5084 211.5C21.4579 211.5 21.4077 211.5 21.3578 211.5C21.3079 211.5 21.2584 211.5 21.2091 211.5C21.1599 211.5 21.1109 211.5 21.0623 211.5C21.0137 211.5 20.9654 211.5 20.9174 211.5C20.8694 211.5 20.8218 211.5 20.7744 211.5C20.7271 211.5 20.6801 211.5 20.6334 211.5C20.5867 211.5 20.5403 211.5 20.4943 211.5C20.4482 211.5 20.4025 211.5 20.3571 211.5C20.3117 211.5 20.2666 211.5 20.2218 211.5C20.1771 211.5 20.1327 211.5 20.0886 211.5C20.0445 211.5 20.0007 211.5 19.9572 211.5C19.9138 211.5 19.8707 211.5 19.8279 211.5C19.7851 211.5 19.7426 211.5 19.7005 211.5C19.6584 211.5 19.6166 211.5 19.5751 211.5C19.5336 211.5 19.4925 211.5 19.4517 211.5C19.4109 211.5 19.3704 211.5 19.3303 211.5C19.2901 211.5 19.2503 211.5 19.2108 211.5C19.1714 211.5 19.1322 211.5 19.0934 211.5C19.0546 211.5 19.0162 211.5 18.978 211.5C18.9399 211.5 18.9021 211.5 18.8647 211.5C18.8272 211.5 18.7901 211.5 18.7533 211.5C18.7165 211.5 18.6801 211.5 18.644 211.5C18.6079 211.5 18.5721 211.5 18.5367 211.5C18.5013 211.5 18.4662 211.5 18.4315 211.5C18.3968 211.5 18.3624 211.5 18.3283 211.5C18.2943 211.5 18.2606 211.5 18.2272 211.5C18.1939 211.5 18.1609 211.5 18.1282 211.5C18.0955 211.5 18.0632 211.5 18.0313 211.5C17.9993 211.5 17.9677 211.5 17.9364 211.5C17.9051 211.5 17.8742 211.5 17.8436 211.5C17.813 211.5 17.7828 211.5 17.7529 211.5C17.7231 211.5 17.6935 211.5 17.6644 211.5C17.6352 211.5 17.6064 211.5 17.5779 211.5C17.5494 211.5 17.5213 211.5 17.4935 211.5C17.4658 211.5 17.4384 211.5 17.4113 211.5C17.3843 211.5 17.3576 211.5 17.3312 211.5C17.3049 211.5 17.2789 211.5 17.2533 211.5C17.2277 211.5 17.2024 211.5 17.1775 211.5C17.1526 211.5 17.128 211.5 17.1038 211.5C17.0796 211.5 17.0558 211.5 17.0323 211.5C17.0089 211.5 16.9858 211.5 16.963 211.5C16.9403 211.5 16.9179 211.5 16.8959 211.5C16.8738 211.5 16.8522 211.5 16.8309 211.5C16.8096 211.5 16.7887 211.5 16.7681 211.5C16.7475 211.5 16.7273 211.5 16.7075 211.5C16.6877 211.5 16.6682 211.5 16.6491 211.5C16.63 211.5 16.6113 211.5 16.5929 211.5C16.5746 211.5 16.5566 211.5 16.539 211.5C16.5214 211.5 16.5041 211.5 16.4872 211.5C16.4704 211.5 16.4539 211.5 16.4377 211.5C16.4216 211.5 16.4058 211.5 16.3904 211.5C16.3751 211.5 16.36 211.5 16.3454 211.5C16.3308 211.5 16.3165 211.5 16.3026 211.5C16.2887 211.5 16.2752 211.5 16.2621 211.5C16.249 211.5 16.2362 211.5 16.2238 211.5C16.2114 211.5 16.1994 211.5 16.1878 211.5C16.1762 211.5 16.165 211.5 16.1541 211.5C16.1432 211.5 16.1328 211.5 16.1227 211.5C16.1126 211.5 16.1029 211.5 16.0935 211.5C16.0842 211.5 16.0752 211.5 16.0667 211.5C16.0581 211.5 16.0499 211.5 16.0421 211.5C16.0343 211.5 16.0269 211.5 16.0199 211.5C16.0129 211.5 16.0063 211.5 16 211.5V217.5ZM176.095 217.498C192.176 216.988 207.473 213.283 218.774 203.52C230.172 193.674 237 178.109 237 155H231C231 176.891 224.578 190.576 214.851 198.98C205.027 207.467 191.324 211.012 175.905 211.502L176.095 217.498ZM236.992 154.778C235.432 133.725 226.787 120.136 215.453 111.887C204.231 103.72 190.676 101 179.5 101V107C189.824 107 202.019 109.53 211.922 116.738C221.713 123.864 229.568 135.775 231.008 155.222L236.992 154.778ZM179.5 101C166.52 101 156.875 102.646 148.379 107.812C139.956 112.933 133.027 121.298 124.973 133.883L130.027 137.117C137.973 124.702 144.294 117.317 151.496 112.938C158.625 108.604 166.98 107 179.5 107V101ZM124.939 133.938C123.923 135.604 123.796 134.769 124.589 134.953C124.725 134.984 124.615 135.003 124.269 134.671C123.938 134.354 123.533 133.851 123.07 133.129C121.125 130.1 119.374 125.268 117.777 121.364L112.223 123.636C113.626 127.065 115.685 132.733 118.021 136.371C118.628 137.316 119.322 138.24 120.114 139C120.892 139.747 121.929 140.495 123.232 140.797C126.357 141.523 128.638 139.396 130.061 137.062L124.939 133.938ZM116.529 125.081C121.746 121.989 131.635 112.019 132.496 95.6577L126.504 95.3423C125.765 109.381 117.254 117.677 113.471 119.919L116.529 125.081ZM131.421 97.8047C131.89 97.4133 132.717 96.9709 134.301 96.0912C135.734 95.2947 137.52 94.2694 139.329 92.8779C143.017 90.041 146.728 85.7367 148.417 78.7001L142.583 77.2999C141.272 82.7633 138.483 85.959 135.671 88.1221C134.23 89.2306 132.766 90.0803 131.387 90.8463C130.158 91.5291 128.61 92.3367 127.579 93.1953L131.421 97.8047ZM148.5 78C148.5 73.4484 148.628 69.6679 148.428 67.1951C148.329 65.9815 148.128 64.589 147.513 63.4379C147.176 62.806 146.665 62.1519 145.899 61.671C145.12 61.1821 144.281 61 143.5 61V67C143.344 67 143.036 66.9585 142.709 66.7528C142.394 66.5551 142.254 66.3268 142.221 66.2652C142.216 66.2548 142.358 66.581 142.447 67.6799C142.622 69.8321 142.5 73.0516 142.5 78H148.5ZM143.5 61C143.328 61 143.105 60.9585 142.468 60.7888C141.962 60.6539 140.995 60.375 139.938 60.375C138.736 60.375 137.507 60.7167 136.328 61.5687C135.229 62.3633 134.292 63.5161 133.428 64.9565L138.572 68.0435C139.208 66.9839 139.646 66.5742 139.843 66.4313C139.929 66.3696 139.959 66.365 139.94 66.3711C139.92 66.3773 139.911 66.375 139.938 66.375C140.068 66.375 140.256 66.4086 140.922 66.5862C141.458 66.729 142.422 67 143.5 67V61ZM138.984 66.8141C139.798 59.0798 140.333 44.3999 140.499 38.0789L134.501 37.9211C134.334 44.2668 133.802 58.7202 133.016 66.1859L138.984 66.8141ZM140.499 38.0682C140.591 34.0286 139.806 27.7771 137.152 21.8279C134.481 15.8385 129.797 9.92329 121.998 7.17103L120.002 12.829C125.803 14.8767 129.453 19.2948 131.673 24.2721C133.911 29.2896 134.576 34.6381 134.501 37.9318L140.499 38.0682ZM122.388 7.34025C119.558 5.86405 117.677 4.75698 115.996 3.82284C114.339 2.90206 112.862 2.14185 111.1 1.57952C107.67 0.485084 103.44 0.247169 94.5833 0.00115674L94.4167 5.99884C103.56 6.25283 106.83 6.51492 109.275 7.29548C110.451 7.67065 111.505 8.19169 113.082 9.06778C114.635 9.93052 116.692 11.136 119.612 12.6598L122.388 7.34025ZM94.5 0C89.0184 0 80.4912 0.776205 72.2176 4.01943C63.9099 7.27607 55.6561 13.1118 51.2464 23.3093L56.7536 25.6907C60.3439 17.3882 67.0901 12.4739 74.4074 9.60557C81.7588 6.7238 89.4816 6 94.5 6V0ZM54.4932 62.0408C52.9239 61.7793 51.9428 61.5753 50.7221 61.3642C49.6951 61.1866 48.569 61.0171 47.5448 61.0659C46.4352 61.1187 45.0631 61.4461 43.9857 62.6192C43.0178 63.6732 42.6839 64.9998 42.5302 66.0757L48.4698 66.9243C48.5661 66.2502 48.6697 66.3893 48.4049 66.6777C48.0307 67.0851 47.6273 67.0688 47.8302 67.0591C48.1185 67.0454 48.6487 67.0947 49.6997 67.2764C50.5572 67.4247 52.0761 67.7207 53.5068 67.9592L54.4932 62.0408ZM42.5302 66.0757C42.2729 67.8762 41.434 73.6457 43.1013 79.898C44.8123 86.3141 49.1575 93.1731 58.9554 96.8123L61.0446 91.1877C53.3425 88.3269 50.1877 83.1859 48.8987 78.352C47.566 73.3543 48.2271 68.6238 48.4698 66.9243L42.5302 66.0757ZM57.2146 95.1142C57.6581 96.2229 58.1912 98.0515 58.9972 100.618C59.7709 103.081 60.7393 106.023 61.9772 109.02C64.397 114.879 68.0791 121.546 73.9565 125.072L77.0435 119.928C72.9209 117.454 69.853 112.371 67.5228 106.73C66.3857 103.977 65.4791 101.232 64.7215 98.8197C63.9963 96.511 63.3419 94.2771 62.7854 92.8858L57.2146 95.1142ZM72.8586 121.078C71.9263 122.809 71.1317 124.58 70.4108 126.162C69.6699 127.787 69.0099 129.205 68.2855 130.443C66.8635 132.874 65.4629 134.155 63.4212 134.556L64.5788 140.444C69.0371 139.567 71.6365 136.598 73.4645 133.473C74.3651 131.934 75.1426 130.247 75.8704 128.651C76.6183 127.01 77.3237 125.441 78.1414 123.922L72.8586 121.078ZM74.0815 125.143C77.8431 127.162 84.3077 129.484 91.8433 130.163C99.4067 130.844 108.233 129.884 116.503 125.096L113.497 119.904C106.567 123.916 99.06 124.789 92.3817 124.187C85.6756 123.583 79.9902 121.505 76.9185 119.857L74.0815 125.143ZM61.0797 138.187C62.1812 142.868 65.1233 149.731 70.45 155.477C75.8404 161.292 83.7255 166 94.5 166V160C85.6745 160 79.3096 156.208 74.85 151.398C70.3267 146.519 67.8188 140.632 66.9203 136.813L61.0797 138.187ZM94.5 166C105.533 166 113.52 159.884 119.094 153.416C121.889 150.173 124.145 146.767 125.937 143.851C127.827 140.774 128.999 138.606 129.967 137.208L125.033 133.792C123.964 135.337 122.442 138.078 120.825 140.71C119.109 143.502 117.045 146.603 114.549 149.499C109.542 155.309 103.067 160 94.5 160V166ZM176 211.5C156.286 211.5 126 190.475 126 148.5H120C120 193.525 152.714 217.5 176 217.5V211.5ZM126 148.5C126 143.821 128.576 139.216 129.967 137.208L125.033 133.792C123.424 136.117 120 141.97 120 148.5H126ZM51.6953 22.5794C48.9253 25.9035 46.1597 33.285 46.637 44.1319L52.6312 43.8681C52.1947 33.95 54.8001 28.2261 56.3047 26.4206L51.6953 22.5794ZM46.637 44.1319C46.9068 50.2624 48.2107 57.5616 51.1692 65.9933L56.8308 64.0067C54.0484 56.0768 52.8728 49.3575 52.6312 43.8681L46.637 44.1319ZM46.8531 45.1251C47.9326 47.7935 50.0626 51.7488 53.0473 55.1434C55.9847 58.4842 60.1594 61.7367 65.3502 61.9963L65.6498 56.0037C62.8406 55.8633 60.06 54.0325 57.5533 51.1816C55.0939 48.3845 53.291 45.0398 52.4152 42.8749L46.8531 45.1251ZM65.3502 61.9963C70.9425 62.2759 77.6384 60.6172 83.6719 58.5214C89.7796 56.3998 95.5478 53.7078 99.4118 51.6471L96.5882 46.3529C92.9522 48.2922 87.4704 50.8502 81.7031 52.8536C75.8616 54.8828 70.0575 56.2241 65.6498 56.0037L65.3502 61.9963ZM99.4118 51.6471C102.846 49.8157 107.592 45.5928 111.907 41.3854C116.323 37.079 120.624 32.4493 123.246 29.4891L118.754 25.5109C116.209 28.3841 112.01 32.9044 107.718 37.0896C103.325 41.3739 99.1544 44.9843 96.5882 46.3529L99.4118 51.6471ZM119.389 30.031L135.889 40.531L139.111 35.469L122.611 24.969L119.389 30.031ZM180.183 142.158C178.79 139.372 176.988 135.265 173.996 132.129C170.796 128.776 166.304 126.542 159.786 127.008L160.214 132.992C164.896 132.658 167.654 134.174 169.654 136.271C171.862 138.585 173.21 141.628 174.817 144.842L180.183 142.158ZM159.786 127.008C156.431 127.247 153.691 128.338 151.529 130.063C149.393 131.766 147.977 133.963 147.036 136.197C145.187 140.583 145 145.527 145 148.5H151C151 145.64 151.213 141.733 152.564 138.528C153.223 136.966 154.107 135.681 155.271 134.753C156.409 133.845 157.969 133.153 160.214 132.992L159.786 127.008ZM145.023 148.872C146.136 157.773 151.116 165.209 156.949 171.747C159.878 175.03 163.094 178.164 166.245 181.182C169.424 184.227 172.516 187.135 175.334 190.076L179.666 185.924C176.734 182.865 173.513 179.835 170.395 176.849C167.25 173.836 164.184 170.845 161.426 167.753C155.884 161.541 151.864 155.227 150.977 148.128L145.023 148.872ZM179.621 190.121C180.86 188.882 183.192 187.041 186.368 184.425C189.443 181.893 193.106 178.792 196.674 175.256C203.7 168.294 210.865 159.163 211.983 148.822L206.017 148.178C205.135 156.337 199.3 164.206 192.451 170.994C189.081 174.333 185.588 177.295 182.554 179.794C179.62 182.209 176.89 184.368 175.379 185.879L179.621 190.121ZM211.983 148.822C212.881 140.51 210.386 134.804 206.061 131.295C201.929 127.943 196.613 127 192.5 127V133C195.887 133 199.632 133.807 202.281 135.955C204.736 137.946 206.74 141.49 206.017 148.178L211.983 148.822ZM192.5 127C187.537 127 184.153 129.566 181.597 132.548C180.343 134.011 179.225 135.645 178.191 137.195C177.127 138.791 176.16 140.286 175.1 141.7L179.9 145.3C181.09 143.714 182.185 142.021 183.184 140.523C184.213 138.98 185.157 137.614 186.153 136.452C188.097 134.184 189.963 133 192.5 133V127Z" fill="black"/>
</svg>
