<svg width="305" height="370" viewBox="0 0 305 370" fill="none" xmlns="http://www.w3.org/2000/svg">
<path d="M81.6805 31.5441C64.4083 31.4198 44.8125 31.4295 32.7237 31.8612C13.141 32.5604 4.74846 56.6253 3 68.5704C3 157.721 3 303.684 3 328.157C3 352.629 25.7299 363.992 37.0949 366.614C102.371 366.905 239.216 367.313 264.394 366.614C289.572 365.915 299.946 340.684 301.986 328.157C301.694 238.423 301.287 91.6446 301.986 68.5704C302.685 45.4961 277.216 34.4833 264.394 31.8612H218.934M81.6805 31.5441C92.3877 31.6211 102.202 31.7497 108.782 31.8612C112.861 21.9555 126.791 2.31896 149.87 3.01819C172.95 3.71741 186.879 22.5382 190.959 31.8612H218.934M81.6805 31.5441C81.3891 49.1303 86.4013 85.002 108.782 87.7989C131.162 90.5958 172.892 88.9643 190.959 87.7989C203.49 81.9721 226.627 62.6271 218.934 31.8612M98.2908 197.052L142.002 239.006L218.934 163.839" stroke="black" stroke-width="6" stroke-linecap="round" stroke-linejoin="round"/>
</svg>
